<?xml version="1.0" standalone="no"?>
<!DOCTYPE svg PUBLIC "-//W3C//DTD SVG 1.1//EN" "http://www.w3.org/Graphics/SVG/1.1/DTD/svg11.dtd" >
<svg xmlns="http://www.w3.org/2000/svg">
<metadata></metadata>
<defs>
<font id="engravers_roman_btregular" horiz-adv-x="1024" >
<font-face units-per-em="2048" ascent="1638" descent="-410" />
<missing-glyph horiz-adv-x="723" />
<glyph horiz-adv-x="2048" />
<glyph horiz-adv-x="2048" />
<glyph unicode="&#xd;" horiz-adv-x="723" />
<glyph unicode=" "  horiz-adv-x="723" />
<glyph unicode="&#x09;" horiz-adv-x="723" />
<glyph unicode="&#xa0;" horiz-adv-x="723" />
<glyph unicode="!" horiz-adv-x="721" d="M229 119q0 56 38 96.5t93 40.5q56 0 92.5 -40t36.5 -97q0 -56 -36.5 -96.5t-92.5 -40.5q-55 0 -93 41t-38 96zM233 1272q0 192 127 192q125 0 125 -192q0 -150 -47.5 -451t-48.5 -454h-57q-1 154 -50 456t-49 449z" />
<glyph unicode="&#x22;" horiz-adv-x="678" d="M90 1362q0 100 84 100q86 0 86 -100q0 -11 -3 -34q0 -3 -1 -7l-66 -457h-32l-64 457q-4 29 -4 41zM418 1360q0 102 86 102q84 0 84 -100q0 -28 -2 -41l-68 -457h-31l-65 457q0 3 -1 6q-3 22 -3 33z" />
<glyph unicode="#" horiz-adv-x="1575" d="M104 467l43 115h322l100 286h-348l43 117h348l166 471h133l-168 -471h287l168 471h131l-166 -471h307l-40 -117h-310l-100 -286h332l-43 -115h-330l-166 -469h-133l166 469h-287l-166 -469h-131l166 469h-324zM600 582h289l102 286h-291z" />
<glyph unicode="$" horiz-adv-x="1446" d="M180 397q0 91 44 154q51 72 138 72q66 0 109 -39.5t43 -104.5q0 -56 -35 -95.5t-90 -39.5q-49 0 -83 41q-30 36 -36 88q-32 -23 -32 -80q0 -146 134 -246q116 -87 271 -100v649q-180 6 -295 97q-127 100 -127 274q0 171 128 281q116 98 294 116v127h53v-122q6 0 19 1 h19.5h19.5q12 -1 18 -1v122h51v-127q156 -19 273 -98q143 -95 143 -236q0 -58 -39.5 -98.5t-97.5 -40.5q-123 0 -123 121q0 92 111 119q-45 151 -267 176v-530q205 -13 336 -119q146 -119 146 -316q0 -198 -145 -326q-133 -118 -337 -136v-173h-51v170h-76v-170h-53v173 q-187 23 -315 124q-148 116 -148 293zM354 1114q0 -110 82 -172q73 -55 187 -55h20v516q-121 -12 -202 -89q-87 -82 -87 -200zM696 43q18 -4 35 -4q7 0 16 1l25 3v649l-76 4v-653zM696 883l76 -4v530q-12 2 -37 2q-26 0 -38 -2zM823 43q138 20 225 111q91 94 91 231 q0 136 -92 217q-83 72 -224 88v-647z" />
<glyph unicode="%" horiz-adv-x="2017" d="M74 979q0 194 96 323q107 144 295 144q175 0 285 -126q106 -121 106 -298q0 -194 -96 -323q-107 -144 -295 -144q-174 0 -285 126q-106 121 -106 298zM256 999q0 -129 42 -238q58 -147 167 -147q110 0 168 149q43 111 43 241q0 131 -42 239q-57 146 -169 146 q-108 0 -166 -150q-43 -112 -43 -240zM492 -18l925 1482h123l-932 -1482h-116zM1159 406q0 194 98 322q108 142 295 142q175 0 286 -124q106 -120 106 -297q0 -195 -97 -324q-107 -143 -295 -143q-175 0 -286 126q-107 121 -107 298zM1343 424q0 -128 43 -238 q57 -147 166 -147q110 0 167 150q42 110 42 241q0 132 -41 239q-56 146 -168 146q-108 0 -166 -151q-43 -112 -43 -240z" />
<glyph unicode="&#x26;" horiz-adv-x="1622" d="M35 338q0 186 148 312q107 90 319 165q-215 166 -215 334q0 148 114 235q103 80 256 80q147 0 253 -80q116 -88 116 -231q0 -199 -272 -301q129 -99 274 -270q98 133 159 191q113 108 214 108q71 0 122.5 -43t51.5 -113q0 -55 -36.5 -94t-90.5 -39q-117 0 -133 162h-2 q-96 0 -240 -236q294 -397 451 -397q26 0 83 16l33 -51q-69 -104 -190 -104q-132 0 -280 145q-69 68 -207 252q-262 -397 -543 -397q-164 0 -272 95q-113 100 -113 261zM215 403q0 -111 82 -178q76 -63 190 -63q235 0 435 266q-154 217 -369 348q-338 -137 -338 -373z M436 1202q0 -89 89 -178q37 -37 163 -129q277 95 277 258q0 106 -90 180q-85 70 -193 70q-99 0 -168 -50q-78 -55 -78 -151z" />
<glyph unicode="'" horiz-adv-x="348" d="M90 1360q0 102 84 102q86 0 86 -100q0 -11 -3 -34q0 -3 -1 -7l-66 -457h-32l-66 457q-2 14 -2 39z" />
<glyph unicode="(" horiz-adv-x="758" d="M186 723q0 254 102 445q114 216 335 298l24 -47q-252 -176 -252 -696t252 -696l-24 -47q-221 82 -335 298q-102 191 -102 445z" />
<glyph unicode=")" horiz-adv-x="758" d="M111 27q254 178 254 696t-254 696l24 47q221 -82 335 -298q101 -191 101 -445t-101 -445q-114 -216 -335 -298z" />
<glyph unicode="*" d="M145 889q0 73 101 96q7 2 31 4q118 12 210 66q-80 48 -199 62q-34 4 -46 7q-97 24 -97 97q0 34 24 56.5t58 22.5q39 0 131 -95q108 -111 142 -130v17q0 62 -35 157t-35 121q0 94 82 94t82 -88q0 -37 -35 -133.5t-35 -155.5v-12q45 24 146 133q83 90 133 90q33 0 54.5 -23 t21.5 -56q0 -74 -101 -97q-8 -1 -33 -4q-118 -11 -208 -63q81 -51 200 -65q33 -4 45 -7q97 -26 97 -96q0 -34 -24 -56t-58 -22q-39 0 -131 94q-109 111 -142 129v-16q0 -61 35 -156t35 -121q0 -96 -82 -96t-82 88q0 37 35 133.5t35 155.5v12q-46 -23 -146 -132 q-83 -91 -133 -91q-33 0 -54.5 23.5t-21.5 56.5z" />
<glyph unicode="+" horiz-adv-x="1706" d="M254 553v117h541v551h118v-551h539v-117h-539v-553h-118v553h-541z" />
<glyph unicode="," horiz-adv-x="721" d="M221 121q0 63 37.5 103t99.5 40q63 0 104 -52q38 -48 38 -112q0 -95 -73.5 -165t-168.5 -74v55q77 15 114 65q-151 8 -151 140z" />
<glyph unicode="-" horiz-adv-x="616" d="M72 655v162h473v-162h-473z" />
<glyph unicode="." horiz-adv-x="721" d="M229 119q0 56 38 96.5t93 40.5q56 0 92.5 -40t36.5 -97q0 -56 -36.5 -96.5t-92.5 -40.5q-55 0 -93 41t-38 96z" />
<glyph unicode="/" horiz-adv-x="569" d="M-39 -190l531 1654h114l-528 -1654h-117z" />
<glyph unicode="0" horiz-adv-x="1446" d="M70 709q0 312 167 524q182 231 486 231q302 0 483 -216q170 -203 170 -511q0 -313 -167 -525q-181 -230 -486 -230q-302 0 -483 216q-170 203 -170 511zM274 717q0 -247 99 -438q124 -236 350 -236q225 0 349 244q99 195 99 442q0 248 -99 438q-123 236 -349 236 q-224 0 -349 -244q-100 -196 -100 -442z" />
<glyph unicode="1" horiz-adv-x="1446" d="M455 1239l211 207h258v-62h-4q-58 0 -74 -99q-6 -37 -6 -140v-844q0 -112 14 -156q26 -84 111 -84h8v-61h-436v61h8q84 0 111 85q14 44 14 155v932q0 57 -47 57q-24 0 -52 -26l-71 -66z" />
<glyph unicode="2" horiz-adv-x="1446" d="M125 156q0 243 184 383q90 68 318 132q80 22 108 31q174 54 259 122q120 96 120 247q0 162 -128 252q-112 78 -281 78q-142 0 -247 -64q-124 -76 -124 -209v-4q84 -13 84 -106q0 -60 -32 -98q-34 -41 -93 -41q-133 0 -133 165q0 208 208 326q173 98 396 98q219 0 372 -93 q183 -111 183 -316q0 -167 -125 -277q-106 -94 -397 -144q-116 -20 -168 -32q-436 -100 -436 -416q0 -32 2 -46q104 118 256 118q74 0 232.5 -49t242.5 -49q183 0 387 137l35 -45q-200 -274 -463 -274q-86 0 -197 34q-25 8 -110 38q-129 46 -181 46q-116 0 -250 -110 q-22 104 -22 166z" />
<glyph unicode="3" horiz-adv-x="1446" d="M102 422q0 89 45 147q50 64 136 64q69 0 111 -45.5t42 -114.5q0 -68 -42.5 -112t-110.5 -46q16 -128 144 -205q112 -67 251 -67q190 0 312 114.5t122 303.5q0 334 -371 346l1 61q120 3 187.5 74t67.5 191q0 132 -104 206q-91 64 -229 64q-196 0 -261 -113 q113 -29 113 -143q0 -148 -154 -148q-68 0 -110 48q-39 45 -39 114q0 164 163 243q125 60 308 60q197 0 338 -71q180 -90 180 -269q0 -88 -50.5 -157t-133.5 -101q295 -76 295 -372q0 -240 -193 -383q-174 -129 -422 -129q-228 0 -397 103q-199 122 -199 337z" />
<glyph unicode="4" horiz-adv-x="1446" d="M-2 406l905 1040h311v-62h-8q-84 0 -111 -84q-14 -45 -14 -155v-737h35q240 0 240 155v17h61v-406h-61v16q0 156 -240 156h-35v-45q0 -111 14 -155q27 -85 111 -85h8v-61h-442v61h8q84 0 110 85q13 43 13 155v45h-883zM246 510q0 -104 119 -104h538v935l-579 -663 q-78 -89 -78 -168z" />
<glyph unicode="5" horiz-adv-x="1446" d="M125 381q0 84 47.5 139t130.5 55q71 0 116.5 -43t45.5 -114q0 -69 -47.5 -109.5t-118.5 -40.5h-10q25 -115 151 -176q103 -49 236 -49q201 0 319.5 115.5t118.5 316.5q0 203 -110.5 316.5t-313.5 113.5q-254 0 -491 -188l57 723h47l21 -33q108 51 202 51q57 0 186 -36 t197 -36q111 0 271 70l41 -55q-195 -201 -461 -201q-67 0 -187 36t-170 36q-100 0 -112 -142l-23 -282q238 141 482 141q246 0 402 -121q171 -133 171 -372q0 -241 -200 -385q-179 -129 -429 -129q-220 0 -377 88q-192 108 -192 311z" />
<glyph unicode="6" horiz-adv-x="1446" d="M115 698q0 330 161 538q178 228 498 228q174 0 331 -76q195 -94 195 -251q0 -62 -45 -62q-41 0 -73 76q-7 18 -17 37q-50 101 -147.5 158t-212.5 57q-242 0 -367 -183q-106 -154 -114 -411q199 143 438 143q237 0 405 -119q189 -134 189 -362q0 -231 -191 -368 q-171 -121 -411 -121q-314 0 -483 205q-156 190 -156 511zM313 633q0 -251 91 -403q112 -187 346 -187q180 0 293 133q108 126 108 309q0 185 -121 297q-118 109 -305 109q-257 0 -410 -203q0 -9 -1 -27.5t-1 -27.5z" />
<glyph unicode="7" horiz-adv-x="1446" d="M162 1165l98 299l55 -16l9 -62q166 78 346 78q71 0 207.5 -26.5t201.5 -26.5q91 0 187 57l57 -32q-23 -205 -88 -326q-50 -94 -144 -226q-145 -206 -155 -220q-199 -299 -199 -461q0 -74 33 -123l-213 -98q-35 95 -35 182q0 237 240 512q50 57 166 177q290 299 319 497 q-186 -86 -379 -86q-67 0 -199 21.5t-198 21.5q-168 0 -250 -160z" />
<glyph unicode="8" horiz-adv-x="1446" d="M68 422q0 151 103 256q94 95 249 131q-254 102 -254 299q0 198 191 289q143 67 366 67t366 -67q191 -91 191 -289q0 -193 -254 -299q155 -36 249 -131q103 -105 103 -256q0 -243 -219 -355q-167 -85 -436 -85t-436 85q-219 112 -219 355zM272 418q0 -181 147 -284 q129 -91 318 -91q184 0 304 95q130 103 130 282q0 182 -138 276q-119 82 -310 82t-312 -82q-139 -96 -139 -278zM369 1118q0 -136 113 -212q98 -66 241 -66q147 0 244 68q110 77 110 218t-110 215q-95 64 -244 64q-150 0 -245 -67q-109 -77 -109 -220z" />
<glyph unicode="9" horiz-adv-x="1446" d="M98 993q0 225 181 355q161 116 395 116q299 0 483 -201q178 -195 178 -497q0 -350 -235 -590q-190 -194 -463 -194q-281 0 -424 180q-84 105 -84 174q0 63 49 63q36 0 55 -62q7 -24 11 -34q93 -260 377 -260q274 0 406 242q106 191 106 489q0 249 -100 420 q-121 209 -353 209q-178 0 -279 -113q-98 -109 -98 -289q0 -177 110 -285t287 -108q185 0 349 142l32 -41q-161 -191 -438 -191q-220 0 -376 125q-169 136 -169 350z" />
<glyph unicode=":" horiz-adv-x="721" d="M229 119q0 56 38 96.5t93 40.5q56 0 92.5 -40t36.5 -97q0 -56 -36.5 -96.5t-92.5 -40.5q-55 0 -93 41t-38 96zM229 766q0 56 37.5 96.5t93.5 40.5t92.5 -40t36.5 -97q0 -56 -36.5 -96.5t-92.5 -40.5q-55 0 -93 41t-38 96z" />
<glyph unicode=";" horiz-adv-x="721" d="M221 121q0 63 37.5 103t99.5 40q63 0 104 -52q38 -48 38 -112q0 -95 -73.5 -165t-168.5 -74v55q77 15 114 65q-151 8 -151 140zM229 766q0 56 37.5 96.5t93.5 40.5t92.5 -40t36.5 -97q0 -56 -36.5 -96.5t-92.5 -40.5q-55 0 -93 41t-38 96z" />
<glyph unicode="&#x3c;" horiz-adv-x="1706" d="M264 559v103l1178 483v-127l-1000 -408l1000 -405v-129z" />
<glyph unicode="=" horiz-adv-x="1706" d="M254 360v117h1198v-117h-1198zM254 743v117h1198v-117h-1198z" />
<glyph unicode="&#x3e;" horiz-adv-x="1706" d="M264 76v129l1000 405l-1000 408v127l1178 -483v-103z" />
<glyph unicode="?" horiz-adv-x="1223" d="M70 1028q0 204 167 326q150 110 361 110q229 0 372 -103q163 -117 163 -337q0 -224 -199 -352q-48 -31 -125 -50q-102 -24 -127 -34q-59 -23 -77 -75q-11 -32 -11 -112v-30h-64v30q0 106 15 152q24 70 98 111q3 2 44 21q75 35 114 67q125 102 125 284q0 165 -98.5 266 t-262.5 101q-135 0 -245 -71q-125 -82 -125 -210q0 -18 2 -34q27 20 49 20q45 0 74 -40q26 -36 26 -83q0 -56 -38 -96.5t-93 -40.5q-72 0 -111 56q-34 49 -34 124zM432 119q0 56 38 96.5t93 40.5q56 0 92.5 -40t36.5 -97q0 -56 -36.5 -96.5t-92.5 -40.5q-55 0 -93 41t-38 96 z" />
<glyph unicode="@" horiz-adv-x="2019" d="M145 537q0 414 336 694q265 221 635 221q333 0 540 -174q220 -185 220 -512q0 -331 -221 -533q-118 -108 -258 -108q-195 0 -207 211q-123 -211 -309 -211q-135 0 -210 104q-67 92 -67 232q0 228 187 409q141 136 299 136q176 0 221 -195l53 180h143l-170 -610 q0 -2 -1 -5q-17 -59 -17 -104q0 -102 94 -102q76 0 164 66q252 188 252 546q0 276 -203 455q-188 166 -483 166q-375 0 -617 -234q-264 -256 -264 -663q0 -337 238 -539q231 -196 581 -196q328 0 613 206l30 -36q-299 -222 -655 -222q-372 0 -616 185q-152 116 -230 276 t-78 357zM750 375q0 -82 33 -136q39 -65 116 -65q132 0 242 178q125 202 125 400q0 84 -41 144q-47 69 -127 69q-103 0 -191 -131q-157 -234 -157 -459z" />
<glyph unicode="A" horiz-adv-x="1495" d="M-111 0v61q113 5 196 106q45 55 116 202l530 1095l699 -1239q31 -54 81 -101q59 -55 111 -63v-61h-508v61h12q47 0 78 28.5t31 74.5q0 57 -47 139l-146 256h-677l-93 -190q-57 -116 -57 -181q0 -116 158 -127v-61h-484zM397 621h611l-330 585z" />
<glyph unicode="B" horiz-adv-x="1573" d="M78 0v61h4q88 0 114 83q13 42 13 157v844q0 113 -13 155q-25 84 -110 84h-8v62h934q446 0 446 -318q0 -102 -60 -177.5t-159 -106.5q127 -46 198.5 -144.5t71.5 -232.5q0 -238 -173 -360q-151 -107 -400 -107h-858zM385 61h465q208 0 324 96q126 103 126 306 q0 167 -99 260q-97 90 -265 90h-551v-752zM385 874h530q144 0 231 57q103 68 103 204q0 112 -78 182q-74 67 -188 67h-598v-510z" />
<glyph unicode="C" horiz-adv-x="1567" d="M68 727q0 328 198 532.5t525 204.5q61 0 162 -19q112 -21 159 -24l17 -1q17 -1 34 -1q113 0 228 68v-391l-54 -4q-72 149 -207.5 230t-304.5 81q-265 0 -415 -193q-136 -176 -136 -450q0 -304 141 -496q158 -215 451 -215q204 0 355 119q163 128 163 326 q0 48 -31.5 107.5t-31.5 72.5q0 43 53 43q64 0 99 -75q28 -59 28 -130q0 -253 -228 -401q-198 -129 -464 -129q-327 0 -534 208.5t-207 536.5z" />
<glyph unicode="D" horiz-adv-x="1604" d="M68 0v61h12q81 0 106 86q13 44 13 154v844q0 112 -13 155q-26 84 -110 84h-8v62h729q340 0 540 -186q207 -192 207 -529q0 -346 -209 -541q-204 -190 -553 -190h-714zM375 61h381q259 0 425 209q154 193 154 459q0 169 -73 323q-78 165 -213 251q-127 81 -379 81h-295 v-1323z" />
<glyph unicode="E" horiz-adv-x="1507" d="M92 0v61h8q85 0 111 84q14 44 14 156v844q0 111 -13 154q-25 85 -108 85h-12v62h1309v-322h-64q-49 139 -135.5 199.5t-234.5 60.5h-559v-567h262q301 0 305 176h61v-413h-61q-4 176 -305 176h-262v-695h559q149 0 237 66q84 63 133 207h64v-334h-1309z" />
<glyph unicode="F" horiz-adv-x="1276" d="M92 0v61h8q85 0 111 84q14 44 14 156v844q0 109 -13 153q-26 86 -108 86h-12v62h1227v-322h-62q-49 139 -136.5 199.5t-235.5 60.5h-477v-567h180q301 0 305 176h61v-413h-61q-4 176 -305 176h-180v-455q0 -111 14 -155q26 -85 110 -85h9v-61h-449z" />
<glyph unicode="G" horiz-adv-x="1540" d="M70 717q0 321 199 532q203 215 522 215q70 0 205.5 -30.5t203.5 -30.5q76 0 162 35v-340h-62q-78 140 -201 223q-131 88 -284 88q-257 0 -405 -218q-129 -190 -129 -460q0 -188 85 -358q92 -183 249 -267q112 -61 243 -61q110 0 201 45q100 50 149 141q25 47 25 168v150 q0 81 -14 116q-24 56 -91 56h-14v61h402v-61h-13q-63 0 -84 -59q-12 -34 -12 -113v-100q0 -94 66 -152q-277 -315 -666 -315q-327 0 -532 204.5t-205 530.5z" />
<glyph unicode="H" horiz-adv-x="1612" d="M92 0v61h8q85 0 111 84q14 44 14 156v844q0 111 -14 155q-26 84 -111 84h-8v62h443v-62h-9q-84 0 -110 -84q-13 -44 -13 -155v-285h807v285q0 111 -14 155q-26 84 -111 84h-8v62h443v-62h-9q-84 0 -111 -84q-14 -45 -14 -155v-844q0 -111 14 -155q27 -85 111 -85h9v-61 h-443v61h8q85 0 111 84q14 44 14 156v498h-807v-498q0 -111 13 -155q26 -85 110 -85h9v-61h-443z" />
<glyph unicode="I" horiz-adv-x="631" d="M94 0v61h8q85 0 111 84q14 44 14 156v844q0 111 -14 155q-26 84 -111 84h-8v62h443v-62h-9q-84 0 -111 -84q-14 -45 -14 -155v-844q0 -111 14 -155q27 -85 111 -85h9v-61h-443z" />
<glyph unicode="J" horiz-adv-x="1366" d="M47 434q0 97 48 160q53 70 147 70q72 0 115.5 -42t43.5 -114q0 -58 -34 -97.5t-91 -39.5q-33 0 -72.5 24.5t-43.5 24.5q-27 0 -27 -47q0 -97 113 -205q133 -127 342 -127q283 0 395 209q47 88 47 254v641q0 111 -14 155q-26 84 -111 84h-8v62h442v-62h-8q-84 0 -111 -84 q-14 -45 -14 -155v-643q0 -107 54 -156q-199 -364 -625 -364q-226 0 -394 110q-194 127 -194 342z" />
<glyph unicode="K" horiz-adv-x="1579" d="M92 0v61h8q85 0 111 84q14 44 14 156v844q0 111 -14 155q-26 84 -111 84h-8v62h443v-62h-9q-84 0 -110 -84q-13 -44 -13 -155v-713l687 713q114 118 114 180q0 59 -94 59h-6v62h452v-62h-10q-133 0 -366 -239l-224 -230l371 -614q145 -240 248 -240h10v-61h-522v61h6 q107 0 107 95q0 65 -48 145l-292 487l-433 -446v-41q0 -111 13 -155q26 -85 110 -85h9v-61h-443z" />
<glyph unicode="L" horiz-adv-x="1309" d="M92 0v61h8q85 0 111 84q14 44 14 156v844q0 109 -13 153q-26 86 -108 86h-12v62h440v-62h-8q-84 0 -110 -84q-13 -43 -13 -155v-1084h478q150 0 237 65t135 208h62v-334h-1221z" />
<glyph unicode="M" horiz-adv-x="1835" d="M14 0v61q211 4 211 306v907q-68 107 -198 111v61h290l605 -948l534 948h311v-62h-8q-84 0 -111 -84q-14 -45 -14 -155v-844q0 -111 14 -155q27 -85 111 -85h8v-61h-442v61h8q85 0 111 84q14 44 14 156v1024l-588 -1051l-583 906v-813q0 -302 211 -306v-61h-484z" />
<glyph unicode="N" horiz-adv-x="1651" d="M63 0l1 61q210 4 210 306v907l-51 59q-44 51 -125 51h-18l-2 62h278l1002 -1145v782q0 301 -195 301h-16v62h483v-62h-16q-195 0 -195 -301v-1114l-1083 1237v-839q0 -302 211 -306v-61h-484z" />
<glyph unicode="O" horiz-adv-x="1702" d="M70 707q0 337 224 549q219 208 558 208q335 0 553 -193q227 -201 227 -532q0 -337 -222 -549q-219 -208 -558 -208q-335 0 -554 193q-228 201 -228 532zM279 717q0 -274 146 -465q161 -209 427 -209q265 0 426 216q145 196 145 470q0 275 -145 465q-159 209 -426 209 q-265 0 -426 -216q-147 -196 -147 -470z" />
<glyph unicode="P" horiz-adv-x="1413" d="M78 0v61h4q88 0 114 83q13 42 13 157v844q0 113 -13 155q-25 84 -110 84h-8v62h729q592 0 592 -377t-592 -377h-422v-391q0 -115 13 -157q26 -83 114 -83h4v-61h-438zM385 754h453q151 0 248 81q104 86 104 234t-104 234q-97 81 -248 81h-453v-630z" />
<glyph unicode="Q" horiz-adv-x="1702" d="M70 707q0 339 223 550q218 207 559 207q335 0 553 -193q227 -201 227 -532q0 -284 -159 -480t-437 -259q84 -51 172 -51q100 0 168 41l35 -47q-97 -142 -231 -142q-82 0 -198.5 59.5t-147.5 59.5q-24 0 -76 -20l-25 32q29 32 62 50q-319 21 -518 212q-207 198 -207 513z M279 717q0 -274 146 -465q161 -209 427 -209q265 0 426 216q145 196 145 470q0 275 -145 465q-159 209 -426 209q-265 0 -426 -216q-147 -196 -147 -470z" />
<glyph unicode="R" horiz-adv-x="1622" d="M94 0v61h4q88 0 114 83q13 42 13 157v844q0 113 -13 155q-25 84 -110 84h-8v62h832q592 0 592 -377q0 -181 -151 -281q-126 -83 -320 -94q87 -54 192 -282q12 -25 31 -66q109 -235 198 -235q12 0 31 6l29 -41q-70 -109 -160 -109q-99 0 -173 118q-32 52 -91 204 q-53 138 -86 203q-66 130 -131 174l6 26h-494v-391q0 -114 14 -157q26 -83 113 -83h4v-61h-436zM399 756h557q151 0 249 80q106 86 106 233q0 148 -105 235q-98 80 -250 80h-557v-628z" />
<glyph unicode="S" horiz-adv-x="1470" d="M82 1077q0 189 157 295q136 92 334 92q85 0 248 -34.5t244 -34.5q91 0 215 57v-346h-63q-75 144 -253 225q-158 72 -337 72q-151 0 -246 -54q-119 -67 -119 -206q0 -113 96 -172q101 -62 337 -80q50 -4 73 -6q608 -56 608 -436q0 -222 -183 -352q-163 -115 -394 -115 q-92 0 -261.5 42t-246.5 42q-107 0 -195 -50v363h64q62 -157 246 -250q164 -84 348 -84q175 0 296 76q144 89 144 254q0 171 -173 245q-96 41 -321 66q-277 30 -401 85q-217 94 -217 306z" />
<glyph unicode="T" horiz-adv-x="1401" d="M39 1124v322h1323v-322h-62q-49 139 -135.5 199.5t-234.5 60.5h-142v-1083q0 -111 14 -155q27 -85 111 -85h9v-61h-443v61h8q85 0 111 84q14 44 14 156v1083h-141q-148 0 -234.5 -60.5t-136.5 -199.5h-61z" />
<glyph unicode="U" horiz-adv-x="1518" d="M63 1384v62h443v-62h-8q-85 0 -111 -84q-14 -44 -14 -155v-645q0 -205 111 -328q115 -129 317 -129q224 0 356 145q127 140 127 367v528q0 301 -192 301h-17v62h481v-62h-16q-194 0 -194 -301v-526q0 -261 -149 -418t-409 -157q-267 0 -429 164.5t-162 431.5v567 q0 110 -14 155q-27 84 -111 84h-9z" />
<glyph unicode="V" horiz-adv-x="1319" d="M-129 1384v62h471v-62h-6q-100 0 -100 -77q0 -50 45 -146l8 -16l440 -905l442 905q37 76 37 133q0 106 -112 106h-6v62h376v-61q-117 -6 -231 -240l-571 -1172l-564 1172q-54 111 -85 152q-62 80 -144 87z" />
<glyph unicode="W" horiz-adv-x="1796" d="M-121 1384v62h473v-62h-6q-104 0 -104 -92q0 -40 36 -145q0 -2 1 -2l290 -828l389 1147l402 -1147l282 828q29 85 29 129q0 110 -112 110h-7v62h377v-61q-148 -12 -225 -240l-404 -1190l-401 1161l-389 -1161l-412 1190q-78 224 -219 239z" />
<glyph unicode="X" horiz-adv-x="1532" d="M-72 0v61q182 14 340 193l428 485l-422 482q-143 163 -272 163h-4v62h565v-62h-12q-86 0 -86 -59q0 -52 70 -131l278 -315l229 260q88 100 88 151q0 73 -155 94v62h545v-62q-181 -12 -340 -192l-324 -367l516 -600q141 -164 273 -164h4v-61h-564v61h13q84 0 84 60 q0 50 -70 131l-377 436l-332 -381q-86 -99 -86 -151q0 -71 156 -95v-61h-545z" />
<glyph unicode="Y" horiz-adv-x="1403" d="M-164 1385v61h551v-62h-8q-90 0 -90 -65q0 -40 53 -109l410 -534l362 487q60 81 60 127q0 88 -156 95v61h538v-62q-220 -24 -348 -194l-409 -543v-346q0 -112 14 -156q26 -84 111 -84h8v-61h-443v61h9q84 0 110 85q13 44 13 155v279l-500 643q-123 158 -285 162z" />
<glyph unicode="Z" horiz-adv-x="1427" d="M51 0v61l1071 1323h-544q-170 0 -271 -54q-116 -61 -178 -206h-61v322h1267v-62l-1071 -1323h594q181 0 291 56q127 64 194 217h62v-334h-1354z" />
<glyph unicode="[" horiz-adv-x="653" d="M201 0v1446h422v-62h-113q-91 0 -118 -80q-15 -43 -15 -159v-844q0 -116 15 -159q27 -81 118 -81h113v-61h-422z" />
<glyph unicode="\" horiz-adv-x="569" d="M-39 1464h117l528 -1654h-114z" />
<glyph unicode="]" horiz-adv-x="653" d="M33 0v61h110q91 0 118 81q15 43 15 159v844q0 116 -15 159q-27 80 -118 80h-110v62h422v-1446h-422z" />
<glyph unicode="^" horiz-adv-x="2048" d="M412 897l522 565h178l520 -565h-92l-518 436l-520 -436h-90z" />
<glyph unicode="_" d="M0 -365h1024v-118h-1024v118z" />
<glyph unicode="`" d="M229 1423q0 70 74 70q39 0 96 -59l289 -299h-67l-330 204q-62 38 -62 84z" />
<glyph unicode="a" horiz-adv-x="1133" d="M-121 0v57q88 4 151 69q38 40 95 144l412 754l540 -852q63 -99 152 -115v-57h-430v57h10q84 0 84 74q0 36 -37 94l-100 158h-508l-60 -113q-45 -85 -45 -127q0 -79 125 -86v-57h-389zM281 440h438l-238 369z" />
<glyph unicode="b" horiz-adv-x="1247" d="M61 0v57h7q66 0 86 54q12 30 12 112v559q0 82 -12 113q-21 53 -88 53h-5v58h738q352 0 352 -222q0 -73 -51 -128q-47 -50 -121 -70q213 -64 213 -260q0 -173 -147 -258q-119 -68 -306 -68h-678zM330 57h336q329 0 329 277q0 110 -81 169q-72 54 -185 54h-399v-500z M330 616h381q98 0 162 34q81 44 81 134q0 76 -59 122q-54 42 -133 42h-432v-332z" />
<glyph unicode="c" horiz-adv-x="1229" d="M55 506q0 240 167 383q158 135 403 135q44 0 129.5 -14.5t126.5 -14.5q30 -2 41 -2q82 0 178 47v-278h-41q-113 205 -387 205q-198 0 -311 -122q-109 -119 -109 -319q0 -212 109 -344q117 -141 325 -141q148 0 269 74q139 87 139 227q0 34 -25 76t-25 49q0 31 43 31 q50 0 77 -50q22 -40 22 -94q0 -185 -191 -288q-155 -84 -356 -84q-245 0 -409 137q-175 146 -175 387z" />
<glyph unicode="d" horiz-adv-x="1329" d="M57 0v57h13q82 0 107 85q13 44 13 153v414q0 110 -14 155q-26 84 -110 84h-9v58h623q253 0 412 -120q176 -133 176 -378q0 -252 -179 -387q-161 -121 -421 -121h-611zM352 57h289q189 0 313 132q121 129 121 319q0 222 -142 336q-130 104 -358 104h-223v-891z" />
<glyph unicode="e" horiz-adv-x="1176" d="M72 0v57h4q66 0 87 54q13 32 13 112v559q0 79 -11 110q-20 56 -83 56h-10v58h956v-238h-57q-75 180 -295 180h-336v-375h102q236 0 242 123h57v-301l-57 1q-4 122 -242 122h-102v-461h336q115 0 182 41q72 44 113 148h57v-246h-956z" />
<glyph unicode="f" horiz-adv-x="1049" d="M72 0v57h4q66 0 87 54q13 32 13 112v559q0 79 -11 110q-20 56 -83 56h-10v58h956v-238h-57q-75 180 -295 180h-336v-375h102q236 0 242 123h57v-301l-57 1q-4 122 -242 122h-102v-295q0 -85 19 -119q26 -47 102 -47h6v-57h-395z" />
<glyph unicode="g" horiz-adv-x="1219" d="M45 498q0 235 169 384q161 142 400 142q56 0 164.5 -22.5t163.5 -22.5q50 0 125 25v-238h-57q-139 203 -369 203q-188 0 -297 -140q-100 -128 -100 -321q0 -196 121 -329q125 -136 319 -136q254 0 254 231v105q0 61 -13 86q-19 35 -73 35h-6v57h340v-57h-10 q-74 0 -74 -121v-70q0 -65 51 -106q-215 -221 -526 -221q-245 0 -408 133q-174 143 -174 383z" />
<glyph unicode="h" horiz-adv-x="1229" d="M57 0v57h6q79 0 107 45q20 34 20 121v557q0 87 -20 122q-28 46 -107 46h-6v58h432v-58h-6q-79 0 -106 -47q-21 -34 -21 -121v-176h516v176q0 87 -20 122q-28 46 -107 46h-6v58h430v-58h-6q-79 0 -106 -47q-21 -34 -21 -121v-557q0 -86 21 -121q27 -45 106 -45h6v-57h-430 v57h6q79 0 107 45q20 34 20 121v324h-516v-324q0 -86 21 -121q27 -45 106 -45h6v-57h-432z" />
<glyph unicode="i" horiz-adv-x="545" d="M57 0v57h6q79 0 107 45q20 34 20 121v557q0 87 -20 122q-28 46 -107 46h-6v58h430v-58h-6q-79 0 -106 -47q-21 -34 -21 -121v-557q0 -86 21 -121q27 -45 106 -45h6v-57h-430z" />
<glyph unicode="j" horiz-adv-x="1081" d="M18 299q0 67 37 113.5t103 46.5q114 0 114 -111q0 -96 -94 -96q-28 0 -48 18.5t-19 18.5q-25 0 -25 -29q0 -100 130 -165q108 -54 218 -54q143 0 233 65q103 74 103 211v463q0 80 -12 112q-21 54 -86 54h-6v60h372v-60h-6q-65 0 -86 -54q-12 -32 -12 -112v-434 q0 -76 41 -110q-158 -254 -506 -254q-165 0 -295 74q-156 89 -156 243z" />
<glyph unicode="k" horiz-adv-x="1247" d="M86 0v55h4q66 0 87 54q13 32 13 112v561q0 80 -13 112q-21 54 -87 54h-4v58h373v-58h-4q-67 0 -88 -53q-13 -32 -13 -113v-452l496 452q90 82 90 127q0 39 -72 39h-8v58h369v-58h-8q-104 0 -289 -166l-164 -147l283 -414q54 -79 83 -108q58 -58 119 -58v-55h-448v55h8 q82 0 82 70q0 39 -39 96l-207 305l-295 -262v-43q0 -80 13 -113q21 -53 88 -53h4v-55h-373z" />
<glyph unicode="l" horiz-adv-x="1063" d="M82 0v57h4q65 0 87 54q13 33 13 112v559q0 79 -11 110q-20 56 -83 56h-10v58h373v-58h-4q-66 0 -88 -54q-13 -33 -13 -112v-725h344q115 0 182 41q72 44 113 148h55v-246h-962z" />
<glyph unicode="m" horiz-adv-x="1491" d="M23 0v57q165 4 165 211v602q-51 74 -155 78v58h246l469 -646l413 646h246v-58h-4q-67 0 -89 -53q-14 -34 -14 -113v-559q0 -79 14 -113q22 -53 89 -53h4v-57h-375v57h4q67 0 89 53q14 34 14 113v643l-451 -690l-442 615v-523q0 -207 166 -211v-57h-389z" />
<glyph unicode="n" horiz-adv-x="1280" d="M23 0v57h4q161 0 161 213v600l-41 39q-41 39 -100 39h-12v58h237l764 -768v501q0 209 -153 209h-15v58h389v-58h-14q-151 0 -151 -209v-784l-846 856v-541q0 -213 166 -213v-57h-389z" />
<glyph unicode="o" horiz-adv-x="1341" d="M61 492q0 247 185 395q171 137 424 137q250 0 421 -127q189 -141 189 -383q0 -248 -185 -396q-171 -136 -425 -136q-251 0 -421 127q-188 141 -188 383zM258 500q0 -192 109 -323q116 -138 305 -138q186 0 302 143q109 134 109 324q0 191 -108 322q-116 141 -303 141 q-186 0 -304 -144q-110 -135 -110 -325z" />
<glyph unicode="p" horiz-adv-x="1147" d="M88 0v57h6q65 0 85 54q11 30 11 112v559q0 82 -10 111q-19 55 -82 55h-10v58h574q468 0 468 -263q0 -262 -468 -262h-308v-258q0 -81 12 -112q21 -54 87 -54h6v-57h-371zM354 539h299q109 0 187 45q94 55 94 157q0 103 -93 159q-78 46 -188 46h-299v-407z" />
<glyph unicode="q" horiz-adv-x="1341" d="M55 485q0 254 184 402q170 137 431 137q250 0 422 -123q194 -139 194 -379q0 -205 -135 -344q-125 -128 -334 -170q89 -33 158 -33q63 0 117 33l36 -57q-78 -109 -182 -109q-62 0 -152.5 44t-121.5 44q-35 0 -58 -18l-36 51q15 19 49 33q-229 14 -390 134 q-182 137 -182 355zM252 506q0 -192 113 -320q118 -133 307 -133q187 0 306 139q112 132 112 322q0 191 -112 319q-118 134 -306 134t-307 -139q-113 -131 -113 -322z" />
<glyph unicode="r" horiz-adv-x="1305" d="M86 0v57h4q66 0 87 54q11 30 11 112v559q0 82 -10 111q-19 55 -82 55h-10v58h655q469 0 469 -263q0 -131 -131 -200q-102 -54 -249 -58q65 -33 137 -141q19 -28 53 -82q114 -180 199 -180q37 0 67 20l25 -43q-77 -77 -187 -77q-139 0 -278 249q-7 13 -19 33 q-61 109 -89 143q-65 78 -140 78h-246v-262q0 -82 12 -113q21 -53 87 -53h4v-57h-369zM352 541h381q110 0 187 45q94 55 94 157q0 103 -93 159q-78 46 -188 46h-381v-407z" />
<glyph unicode="s" horiz-adv-x="1241" d="M117 752q0 140 137 213q109 59 262 59q68 0 195 -24.5t182 -24.5q79 0 170 39v-244h-57q-62 98 -201 151q-118 44 -252 44q-103 0 -181 -36q-102 -47 -102 -138q0 -121 307 -159q29 -3 76 -9q204 -26 311 -76q175 -81 175 -238q0 -166 -160 -255q-130 -72 -309 -72 q-73 0 -206 30.5t-185 30.5q-76 0 -150 -37v254h57q55 -112 208 -171q126 -48 272 -48q121 0 212 51q111 62 111 174q0 111 -143 160q-64 22 -234 43q-222 27 -312 61q-183 69 -183 222z" />
<glyph unicode="t" horiz-adv-x="1124" d="M39 768v238h1046v-238h-57q-41 100 -114 142q-66 38 -179 38h-92v-725q0 -78 13 -111q22 -55 87 -55h5v-57h-373v57h4q66 0 87 54q13 32 13 112v725h-90q-113 0 -179 -38q-73 -42 -114 -142h-57z" />
<glyph unicode="u" horiz-adv-x="1270" d="M78 948v58h373v-58h-5q-66 0 -87 -54q-13 -32 -13 -112v-438q0 -144 91 -226q87 -79 233 -79q159 0 260.5 92.5t101.5 249.5v358q0 209 -151 209h-15v58h389v-58h-10q-155 0 -155 -209v-356q0 -191 -127 -299q-119 -102 -314 -102q-201 0 -329 105q-138 113 -138 310v385 q0 80 -13 112q-21 54 -87 54h-4z" />
<glyph unicode="v" horiz-adv-x="1067" d="M-92 948v58h401v-58h-6q-80 0 -80 -63q0 -26 43 -103l328 -589l328 589q28 50 28 90q0 76 -86 76h-8v58h309v-58q-93 -4 -184 -166l-449 -800l-442 800q-44 80 -71 109q-45 50 -111 57z" />
<glyph unicode="w" horiz-adv-x="1427" d="M-80 1006h393v-58q-88 0 -88 -57q0 -32 31 -109l213 -526l303 768l309 -758l205 516q25 63 25 90q0 76 -92 76h-7v58h306l-1 -58q-81 -7 -134 -85q-23 -33 -42 -81l-317 -800l-307 761l-299 -761l-324 800q-62 153 -173 166z" />
<glyph unicode="x" horiz-adv-x="1247" d="M-39 0v57q145 10 268 133l318 318l-326 326q-114 114 -213 114h-4v58h475v-58h-10q-70 0 -70 -43q0 -28 60 -88l200 -201l160 160q72 72 72 111q0 49 -125 61v58h432v-57q-147 -11 -270 -134l-232 -233l416 -410q117 -115 217 -115v-57h-483v57h10q70 0 70 43 q0 30 -58 88l-282 283l-242 -244q-72 -73 -72 -110q0 -48 125 -60v-57h-436z" />
<glyph unicode="y" horiz-adv-x="1104" d="M-111 1006h473v-58h-8q-69 0 -69 -45q0 -29 41 -76l284 -323l252 291q53 61 53 88q0 54 -127 65v58h437l-1 -58q-177 -20 -276 -135l-301 -348v-242q0 -80 13 -113q21 -53 88 -53h4v-57h-373v57h6q65 0 86 54q12 32 12 112v191l-370 422q-96 110 -223 112z" />
<glyph unicode="z" horiz-adv-x="1114" d="M31 0v57l805 891h-381q-266 0 -355 -180h-55v238h999v-58l-806 -891h421q289 0 383 189h58v-246h-1069z" />
<glyph unicode="{" d="M176 606v60q161 15 219 71q62 61 62 219v213q0 204 89 279q80 68 290 68h10v-51q-146 -2 -198 -61q-48 -55 -48 -204v-143q0 -202 -47 -284q-59 -104 -240 -138q181 -34 240 -138q47 -82 47 -284v-143q0 -150 48 -204q51 -57 198 -59v-51h-10q-209 0 -290 68 q-89 75 -89 278v213q0 158 -62 220q-59 58 -219 71z" />
<glyph unicode="|" d="M449 -483v2048h126v-2048h-126z" />
<glyph unicode="}" d="M178 -193q147 2 198 59q48 54 48 204v143q0 202 47 284q59 104 240 138q-181 34 -240 138q-47 82 -47 284v143q0 149 -48 204q-52 59 -198 61v51h10q209 0 290 -69q89 -75 89 -278v-213q0 -158 62 -219q58 -56 219 -71v-60q-160 -13 -219 -71q-62 -62 -62 -220v-213 q0 -203 -89 -278q-82 -68 -290 -68h-10v51z" />
<glyph unicode="~" horiz-adv-x="1706" d="M178 461v133q209 145 387 145q105 0 291 -65q10 -4 35 -13q162 -59 254 -59q163 0 385 156v-131q-202 -144 -387 -144q-83 0 -191 35q-7 2 -87 31q-201 72 -302 72q-157 0 -385 -160z" />
<glyph unicode="&#xa1;" horiz-adv-x="721" d="M229 1327q0 55 38 96t93 41q56 0 92.5 -40.5t36.5 -96.5q0 -57 -36.5 -97t-92.5 -40q-55 0 -93 40.5t-38 96.5zM233 174q0 147 49 449t50 456h57q1 -153 48.5 -454t47.5 -451q0 -192 -125 -192q-127 0 -127 192z" />
<glyph unicode="&#xa2;" horiz-adv-x="1446" d="M178 721q0 237 157 378q146 132 388 150v342h70v-338q174 -3 296 -66q158 -81 158 -237q0 -63 -36.5 -104t-98.5 -41t-102.5 37t-40.5 98q0 104 106 127q-79 119 -272 119h-10v-932q243 10 346 205q18 33 34 86q20 65 56 65q47 0 47 -61q0 -58 -54 -137 q-47 -68 -102 -111q-125 -96 -327 -108v-386h-70v386q-236 21 -384 154q-161 145 -161 374zM358 707q0 -385 365 -449v926q-174 -28 -273 -167q-92 -129 -92 -310z" />
<glyph unicode="&#xa3;" horiz-adv-x="1446" d="M68 659v70h235q-131 214 -131 334q0 201 185 311q155 92 370 92q224 0 396 -97q208 -117 208 -325q0 -165 -133 -165q-59 0 -93 41q-32 38 -32 98q0 93 86 106v4q0 133 -126 209q-106 64 -247 64q-166 0 -280 -78q-129 -89 -129 -248q0 -75 53 -178q73 -140 82 -168h326 v-70h-307q0 -8 1 -23v-24q0 -201 -210 -411q98 51 200 51q76 0 225 -44t226 -44q178 0 383 137l35 -45q-200 -274 -459 -274q-91 0 -265.5 59t-244.5 59q-112 0 -250 -86l-63 88q243 222 243 439q0 58 -22 118h-262z" />
<glyph unicode="&#xa4;" horiz-adv-x="1241" d="M86 424l207 205q-88 116 -88 256t88 256l-207 205l72 73l207 -207q119 91 256 91q141 0 260 -91l204 207l72 -73l-205 -205q86 -114 86 -256q0 -144 -86 -256l205 -205l-72 -74l-204 207q-114 -88 -260 -88q-145 0 -256 88l-207 -207zM309 887q0 -132 91 -224t223 -92 q130 0 221.5 92.5t91.5 223.5q0 130 -91.5 221.5t-221.5 91.5t-222 -91.5t-92 -221.5z" />
<glyph unicode="&#xa5;" horiz-adv-x="1403" d="M-152 1427h543v-61h-12q-84 0 -84 -61q0 -45 51 -111l406 -526l356 479q59 79 59 127q0 90 -151 92v61h530v-61q-215 -22 -344 -190l-151 -197h338v-70h-390l-186 -247h576v-70h-592v-295q0 -110 14 -153q26 -83 109 -83h8v-61h-436v61h8q84 0 110 83q13 42 13 153v276 l-19 19h-590v70h537l-193 247h-344v70h287l-174 227q-119 156 -278 160z" />
<glyph unicode="&#xa6;" d="M449 -350v758h126v-758h-126zM449 674v758h126v-758h-126z" />
<glyph unicode="&#xa7;" d="M135 657q0 113 81 184q77 68 192 68h20q-195 164 -195 299q0 115 87 188q83 68 200 68q106 0 184 -49q91 -58 91 -158q0 -108 -105 -108q-36 0 -63 22t-27 58q0 30 32 70t32 47q0 29 -57 45q-41 12 -79 12q-72 0 -120 -36q-52 -40 -52 -110q0 -96 181 -249l178 -150 q174 -147 174 -291q0 -111 -82 -182q-78 -66 -191 -66h-24q199 -156 199 -301q0 -117 -99 -188q-89 -63 -211 -63q-104 0 -187 49q-99 58 -99 155q0 113 104 113q37 0 63.5 -24.5t26.5 -61.5q0 -34 -32.5 -71.5t-32.5 -43.5q0 -26 68 -42q49 -11 87 -11q77 0 128 30 q61 37 61 109q0 96 -176 248l-181 156q-176 152 -176 284zM252 713q0 -80 123 -199q135 -131 248 -131q60 0 104.5 40.5t44.5 100.5q0 79 -123 199q-134 131 -248 131q-60 0 -104.5 -40.5t-44.5 -100.5z" />
<glyph unicode="&#xa8;" d="M238 1290q0 40 29 69.5t69 29.5t70 -29.5t30 -69.5q0 -42 -29 -71t-71 -29q-43 0 -70.5 28.5t-27.5 71.5zM588 1290q0 40 30 69.5t70 29.5t69 -29.5t29 -69.5q0 -43 -27.5 -71.5t-70.5 -28.5q-42 0 -71 29t-29 71z" />
<glyph unicode="&#xa9;" horiz-adv-x="1683" d="M139 678q0 290 204 497t501 207q288 0 494 -205t206 -499q0 -288 -207 -498q-202 -205 -495 -205q-289 0 -496 205t-207 498zM225 678q0 -257 182 -439t435 -182q257 0 434 181q182 186 182 440q0 261 -181 443t-433 182q-256 0 -437.5 -184.5t-181.5 -440.5zM426 664 q0 179 109 306q115 132 292 132q58 0 141 -34t89 -34q52 0 63 62h35l2 -314h-41q-68 275 -280 275q-248 0 -248 -373q0 -381 266 -381q170 0 283 174l34 -24q-115 -209 -342 -209q-171 0 -287 124t-116 296z" />
<glyph unicode="&#xaa;" horiz-adv-x="748" d="M-80 578v34q58 2 98 39q25 24 64 88l272 453l357 -512q40 -58 100 -68v-34h-285v34h9q55 0 55 43q0 22 -25 58l-65 94h-336l-39 -68q-31 -54 -31 -75q0 -48 82 -52v-34h-256zM184 842h291l-158 221z" />
<glyph unicode="&#xab;" horiz-adv-x="891" d="M76 504q214 176 375 368l55 -30q-65 -143 -256 -338q190 -193 256 -338l-55 -29q-159 188 -375 367zM408 504q211 173 374 368l56 -30q-65 -143 -256 -338q190 -193 256 -338l-56 -29q-154 186 -374 367z" />
<glyph unicode="&#xac;" horiz-adv-x="1706" d="M254 741v117h1198v-502h-115v385h-1083z" />
<glyph unicode="&#xad;" horiz-adv-x="616" d="M72 655v162h473v-162h-473z" />
<glyph unicode="&#xae;" horiz-adv-x="1683" d="M139 678q0 290 204 497t501 207q291 0 497 -206q203 -203 203 -500q0 -287 -213 -500q-201 -201 -495 -201q-209 0 -386 119.5t-258 312.5q-53 127 -53 271zM225 678q0 -257 182 -439t435 -182q257 0 434 181q182 186 182 440q0 263 -180 442q-184 183 -434 183 q-255 0 -437 -184t-182 -441zM469 291v40q65 3 92 19q35 23 35 82v516q0 60 -35 82q-25 15 -92 19v43h393q121 0 206 -40q112 -53 112 -161q0 -147 -287 -199q172 -54 213 -211q5 -18 11 -63q12 -88 59 -88q67 0 67 133h43v-12q0 -179 -160 -179q-96 0 -127 66 q-17 37 -20 105q-2 77 -10 104q-38 133 -207 133h-33v-248q0 -59 34 -81q26 -16 91 -20v-40h-385zM729 719q32 -2 66 -2q235 0 235 174q0 80 -60 123q-53 39 -136 39q-105 0 -105 -72v-262z" />
<glyph unicode="&#xaf;" d="M254 1227v125h516v-125h-516z" />
<glyph unicode="&#xb0;" horiz-adv-x="674" d="M55 1171q0 119 82 201t201 82q118 0 200.5 -82.5t82.5 -200.5t-83.5 -200t-201.5 -82q-119 0 -200 81.5t-81 200.5zM135 1171q0 -85 59 -143.5t144 -58.5t143 58.5t58 143.5t-58 143t-143 58t-144 -58.5t-59 -142.5z" />
<glyph unicode="&#xb1;" horiz-adv-x="1706" d="M254 41v117h1198v-117h-1198zM254 719v117h541v344h118v-344h539v-117h-539v-344h-118v344h-541z" />
<glyph unicode="&#xb2;" horiz-adv-x="954" d="M82 672q0 144 123 229q58 40 203 78l77 20q250 70 250 222q0 100 -89 153q-74 43 -181 43q-89 0 -158 -36q-86 -45 -86 -126v-3q55 -8 55 -64q0 -84 -83 -84q-89 0 -89 100q0 128 144 198q114 56 256 56q140 0 240 -53q126 -66 126 -193q0 -100 -82 -165 q-70 -56 -259 -85q-70 -11 -113 -20q-289 -61 -289 -250q0 -18 2 -28q69 71 168 71q51 0 155 -29.5t158 -29.5q123 0 256 82l23 -27q-131 -164 -305 -164q-55 0 -130 21q-27 8 -66 20q-91 29 -126 29q-80 0 -164 -66q-16 62 -16 101z" />
<glyph unicode="&#xb3;" horiz-adv-x="954" d="M68 831q0 125 118 125q43 0 73 -25.5t30 -68.5q0 -91 -102 -96q10 -79 98 -124q73 -38 161 -38q121 0 201 63q86 69 86 187q0 201 -243 207v37q167 6 167 159q0 83 -71 126q-60 36 -148 36q-130 0 -172 -67q74 -19 74 -86q0 -88 -100 -88q-99 0 -99 96q0 101 112 148 q81 34 198 34q125 0 218 -41q124 -54 124 -164q0 -113 -121 -153q194 -50 194 -224q0 -148 -134 -234q-114 -73 -271 -73q-145 0 -256 58q-137 73 -137 206z" />
<glyph unicode="&#xb4;" d="M336 1135l289 299q57 59 96 59q74 0 74 -70q0 -46 -62 -84l-330 -204h-67z" />
<glyph unicode="&#xb6;" d="M76 1130q0 166 116 261q108 88 277 88h479v-78h-125v-1401h-94v1401h-182v-1401h-96v782q-164 8 -265 94q-110 94 -110 254z" />
<glyph unicode="&#xb7;" horiz-adv-x="721" d="M227 745q0 56 38.5 95t94.5 39q57 0 95.5 -38.5t38.5 -95.5q0 -56 -39 -94.5t-95 -38.5q-55 0 -94 39t-39 94z" />
<glyph unicode="&#xb8;" d="M274 -371l35 78q125 -72 223 -72q121 0 121 93q0 90 -106 90q-14 0 -68 -6v188h64v-112q46 6 69 6q77 1 125.5 -43.5t48.5 -120.5q0 -90 -67 -136q-58 -40 -152 -40q-102 0 -293 75z" />
<glyph unicode="&#xb9;" horiz-adv-x="954" d="M301 1321l139 125h170v-37h-2q-53 0 -53 -145v-506q0 -68 10 -96q17 -48 72 -48h6v-36h-289v36h6q55 0 72 48q10 28 10 96v559q0 35 -30 35q-18 0 -35 -17l-47 -39z" />
<glyph unicode="&#xba;" horiz-adv-x="885" d="M41 872q0 153 128 242q113 78 273 78q158 0 271 -72q133 -84 133 -233q0 -154 -129 -243q-114 -77 -275 -77q-158 0 -270 72q-131 84 -131 233zM170 877q0 -119 77 -198t195 -79t195.5 81t77.5 200q0 120 -77 199t-196 79q-117 0 -194.5 -82t-77.5 -200z" />
<glyph unicode="&#xbb;" horiz-adv-x="891" d="M53 166q66 145 256 338q-191 195 -256 338l56 30q157 -190 374 -368q-220 -181 -374 -367zM385 166q63 141 256 338q-191 195 -256 338l55 30q161 -192 375 -368q-216 -179 -375 -367z" />
<glyph unicode="&#xbc;" horiz-adv-x="2165" d="M285 1329l133 115h164v-33h-4q-50 0 -50 -135v-473q0 -133 78 -133h6v-35h-276v35h6q52 0 69 43q9 25 9 90v522q0 33 -29 33q-15 0 -32 -14l-46 -37zM569 -18l904 1482h120l-901 -1482h-123zM1251 227l572 582h196v-33h-6q-78 0 -78 -135v-414h21q151 0 151 88v9h39v-226 h-39v8q0 89 -151 89h-21v-27q0 -133 78 -133h6v-35h-278v35h4q52 0 69 43q9 25 9 90v27h-557zM1409 285q0 -58 74 -58h340v525l-365 -373q-49 -50 -49 -94z" />
<glyph unicode="&#xbd;" horiz-adv-x="2165" d="M285 1329l133 115h164v-33h-4q-50 0 -50 -135v-473q0 -133 78 -133h6v-35h-276v35h6q52 0 69 43q9 25 9 90v522q0 33 -29 33q-15 0 -32 -14l-46 -37zM569 -18l904 1482h120l-901 -1482h-123zM1331 88q0 135 117 213q59 40 206 76q35 9 62 16q240 65 240 207q0 94 -86 143 q-71 41 -172 41q-85 0 -151 -33q-83 -41 -83 -118v-4q54 -8 54 -60q0 -77 -80 -77q-84 0 -84 94q0 120 138 186q109 51 243 51q130 0 227 -49q123 -62 123 -180q0 -92 -80 -156q-65 -52 -249 -80q-76 -11 -108 -18q-274 -56 -274 -234q0 -14 2 -26q65 67 162 67 q46 0 146 -27.5t153 -27.5q113 0 244 76l22 -25q-126 -153 -293 -153q-56 0 -122 18q-13 3 -55 17q-94 30 -130 30q-74 0 -157 -61q-15 60 -15 94z" />
<glyph unicode="&#xbe;" horiz-adv-x="2165" d="M66 870q0 119 112 119q96 0 96 -90q0 -84 -95 -88q10 -75 95 -117q70 -35 154 -35q113 0 189 59q83 65 83 175q0 185 -233 195v32q162 6 162 150q0 76 -71 117q-58 34 -140 34q-120 0 -164 -63q72 -19 72 -80q0 -84 -97 -84q-94 0 -94 92q0 94 108 137q77 31 187 31 q120 0 208 -37q120 -49 120 -153t-117 -144q186 -43 186 -209q0 -139 -129 -219q-110 -67 -258 -67q-137 0 -242 53q-132 67 -132 192zM569 -18l904 1482h120l-901 -1482h-123zM1251 227l572 582h196v-33h-6q-78 0 -78 -135v-414h21q151 0 151 88v9h39v-226h-39v8 q0 89 -151 89h-21v-27q0 -133 78 -133h6v-35h-278v35h4q52 0 69 43q9 25 9 90v27h-557zM1409 285q0 -58 74 -58h340v525l-365 -373q-49 -50 -49 -94z" />
<glyph unicode="&#xbf;" horiz-adv-x="1223" d="M90 422q0 225 199 352q48 31 125 50q102 24 127 34q59 23 77 74q11 33 11 112v31h63v-31q0 -106 -15 -152q-23 -69 -97 -110l-44 -21q-76 -36 -114 -67q-123 -99 -123 -284q0 -164 97 -265.5t261 -101.5q135 0 245 71q126 82 126 210q0 16 -2 34q-27 -20 -49 -20 q-46 0 -74 40q-26 35 -26 83q0 56 38 96.5t93 40.5q73 0 112 -55q35 -49 35 -125q0 -203 -165 -325q-149 -111 -359 -111q-230 0 -375 102q-166 117 -166 338zM530 1327q0 56 37 96.5t92 40.5t93.5 -40.5t38.5 -96.5t-38.5 -96.5t-93.5 -40.5q-56 0 -92.5 40t-36.5 97z" />
<glyph unicode="&#xc0;" horiz-adv-x="2845" d="M82 -25h49l1245 -413v-19zM82 -25l1016 344l12 -10l-979 -334h-49zM82 1124h49l1245 -417v-19zM82 1124l1294 439v-19l-1245 -420h-49zM117 -12h2513v-19h-2513v19zM117 1110v23h2513v-23h-2513zM219 -25h53l1104 -413v-19zM219 -25l885 334l12 -10l-844 -324h-53z M219 1124l1157 439v-19l-1104 -420h-53zM219 1124h53l1104 -417v-19zM481 -25l645 318l15 -10l-619 -308h-41zM481 -25h41l854 -413v-19zM481 1124h41l854 -417v-19zM481 1124l895 439v-19l-854 -420h-41zM618 -188h1518l-31 -19h-1460zM618 956h1518l-31 -18h-1460z M772 -25l393 285l11 -12l-373 -273h-31zM772 -25h31l573 -413v-19zM772 1124l604 439v-19l-573 -420h-31zM772 1124h31l573 -417v-19zM961 551q0 200 109.5 310t309.5 110q201 0 308.5 -109.5t107.5 -310.5q0 -197 -109.5 -306.5t-306.5 -109.5q-198 0 -308.5 109 t-110.5 307zM1030 287l37 12h49l21 -12h-107zM1030 1432l37 12h619l40 -12h-696zM1038 506q0 -33 27 -33t27 31q0 28 -25 28q-6 0 -12 -2q-17 -12 -17 -24zM1044 -336h668l-31 -12h-620zM1044 811h478l8 -12h-469zM1057 446l12 -34l39 -70l18 -23l29 -24l37 -27l31 -16 l28 -10l-18 18l-23 16l-32 37l-23 25l-39 78l-6 24l-10 27l-10 -12l-11 -9h-22zM1083 -25h21l272 -413v-19zM1083 -25l293 439v-17l-272 -422h-21zM1083 1124l293 439v-19l-272 -420h-21zM1083 1124h21l272 -417v-19zM1098 319l112 35zM1110 309zM1116 299zM1137 287z M1141 283zM1176 248zM1210 354l166 60v-17l-153 -55zM1212 354zM1212 354l164 60v-17l-153 -59zM1223 340l153 74v-17l-143 -69zM1223 340zM1239 313l137 101v-17l-129 -94zM1239 313zM1251 299zM1251 299h435l40 -12h-466zM1370 406h16v-850l-16 4v846zM1370 702v850h16 v-850h-16zM1376 397v17l1159 -439h-53zM1376 397v17l1297 -439h-50zM1376 397v17l613 -439h-35zM1376 397v17l901 -439h-45zM1376 397v17l295 -439h-20zM1376 -438l275 413h20l-295 -432v19zM1376 -438l1247 413h50l-1297 -432v19zM1376 -438l1106 413h53l-1159 -432v19z M1376 -438l578 413h35l-613 -432v19zM1376 -438l856 413h45l-901 -432v19zM1376 688v19l174 59l11 -16zM1376 688v19l170 63l13 -10zM1376 688v19l146 104l8 -12zM1376 688v19l160 77l10 -14zM1376 688v19l275 417h20zM1376 1544v19l901 -439h-45zM1376 1544v19l295 -439 h-20zM1376 1544v19l613 -439h-35zM1376 1544v19l1159 -439h-53zM1376 1544v19l1297 -439h-50zM1518 887l24 -27l19 -18l14 -17l6 -16l16 -25l9 -22l12 -37l14 14l25 19l16 2l-51 63l-25 21l-22 16l-39 17zM1530 799zM1530 799zM1546 770zM1559 760zM1561 750zM1604 870 l350 254h35l-373 -268zM1604 870zM1632 831l600 293h45l-626 -307zM1632 831zM1653 811zM1653 811l829 313h53l-870 -325zM1653 811zM1653 811h59l-31 -12h-16zM1663 801zM1663 801l960 323h50l-1002 -336zM2103 158zM2103 1303z" />
<glyph unicode="&#xc1;" horiz-adv-x="6042" d="M92 -414h1612v389h-1206v775h-406v-1164zM92 1137v387h1612v-387h-1612zM2105 -414h404v776h805v-776h399v1164h-1608v-1164zM2105 1137v387h1608v-387h-1608zM4119 -25v-389h1607v1164h-1607v-388h1206v-387h-1206zM4119 1137v387h1607v-387h-1607z" />
<glyph unicode="&#xc2;" horiz-adv-x="2245" d="M102 1561l1037 -1983l1018 1983h-76v-48h10l-956 -1841l-963 1841h1909v48h-1979zM391 1368l119 -229h1241l117 229h-1477zM551 1059l121 -230h921l117 230h-1159zM575 1253q0 56 50 56h16v-27h-12q-27 0 -27 -29q0 -26 27 -26h12v-25h-16q-50 0 -50 51zM664 1260 q0 49 53 49q49 0 49 -49q0 -58 -49 -58q-53 0 -53 58zM688 1253q0 -26 29 -26q24 0 24 26q0 29 -24 29q-29 0 -29 -29zM711 756l120 -234h601l118 234h-839zM762 893l22 102h23l24 -102h-22l-2 18h-23l-2 -18h-20zM791 928h12q-6 22 -8 45zM791 1202l6 82q2 25 18 25 q19 0 21 -23l4 -49l10 53q4 19 20 19q19 0 19 -23l8 -84h-23l-8 84l-12 -67q-3 -17 -14 -17q-9 0 -9 12l-16 70l-4 -82h-20zM864 893v102h17q45 0 45 -51q0 -39 -29 -47q-4 -4 -18 -4h-15zM866 434v10h537v-10h-537zM866 434h8q74 -139 173 -309q22 -31 40 -31q24 0 29 39 q15 111 -4 111h-10l-29 -19l62 189v-506zM883 911q22 0 22 33t-22 33v-66zM885 592v22q12 -8 18 -8q12 0 12 15l-14 14q-16 16 -16 27q0 26 28 26q7 0 17 -4v-16q-8 2 -10 4q-15 0 -15 -10l15 -19q13 -16 14 -22q0 -37 -29 -37q-8 0 -20 8zM920 1202v66q0 41 36 41 q35 0 35 -37q0 -35 -35 -35h-4v25q17 0 17 10q0 12 -15 12q-10 0 -10 -12v-70h-24zM944 688h23l6 -18q4 -4 6 -19q2 6 2 19l8 18h21l-25 -55v-47h-16v47zM954 995h25l10 -75q0 9 6 30l13 45h20l-24 -102h-23zM1018 1237v72h22v-72q0 -14 11 -14q18 0 18 14v72h21v-72 q0 -35 -39 -35q-33 0 -33 35zM1022 662q0 26 25 26q12 0 22 -4v-16q-10 2 -18 4q-7 0 -7 -10l13 -19q8 -11 12 -22q0 -37 -29 -37q-8 0 -16 8v22q8 -8 14 -8q9 0 9 15l-11 14q-14 18 -14 27zM1051 893l22 102h19l28 -102h-24l-4 18h-19l-2 -18h-20zM1075 928h15l-3 45z M1087 670v18h52v-18h-17v-84h-20v84h-15zM1112 1282v27h64v-27h-17v-80h-29v80h-18zM1135 -92l268 526h-10q-109 -211 -168 -309q-19 -31 -45 -31q-23 0 -27 39q-11 111 8 111h2q17 -8 31 -19l-59 189v-506zM1153 893v102h23l18 -53q0 -6 6 -22q-2 22 -2 34v41h21v-102h-21 l-22 57q0 8 -7 19q7 -15 7 -33v-43h-23zM1161 586v102h43v-18h-24v-19h20v-20h-20v-25h24v-20h-43zM1194 1260q0 49 53 49t53 -49q0 -58 -53 -58t-53 58zM1219 1253q0 -26 28 -26q31 0 31 26q0 29 -31 29q-28 0 -28 -29zM1227 586l10 102h25l6 -37q2 -12 2 -30q2 4 6 30 l2 37h25l12 -102h-21l-6 47v37l-10 -84h-16l-13 84v-13q-2 -10 -2 -16v-8l-4 -47h-16zM1255 944q0 51 41 51h13v-22q-2 4 -9 4q-22 0 -22 -33t22 -33q7 0 9 7v-21q-2 -4 -9 -4q-45 0 -45 51zM1327 1202v66q0 41 35 41q37 0 37 -27v-2q0 -23 -23 -27q23 0 23 -16v-35h-27v35 q0 6 -14 6v23q14 0 14 8q0 10 -10 10t-10 -12v-70h-25zM1333 592v22q10 -8 15 -8q12 0 12 15l-14 14q-13 13 -13 27q0 26 27 26q8 0 14 -4v-16l-12 4q-6 0 -6 -10l10 -19q10 -14 10 -22q0 -37 -24 -37q-9 0 -19 8zM1356 893v102h37v-18h-21v-23h21v-16h-21v-20h21v-25h-37z M1430 1202v107h24v-107h-24zM1438 893v102h16q45 0 45 -51t-49 -51h-12zM1456 911q23 0 23 33t-23 33v-66zM1479 1237v72h26v-72q0 -14 15 -14q10 0 10 14v72h26v-72q0 -35 -36 -35q-41 0 -41 35zM1581 1202l4 82q1 25 23 25q12 0 16 -23l8 -49h4l4 53q1 19 23 19 q19 0 20 -23l5 -84h-23l-2 84l-16 -67q-4 -17 -11 -17q-14 0 -14 12l-12 70l-6 -82h-23z" />
<glyph unicode="&#xc3;" horiz-adv-x="2361" d="M78 1518v36h2160v-36h-2160zM78 1524h33q284 -523 684 -1162q94 -100 174 -100q91 0 108 131q25 190 25 273q0 143 -47 143h-11q-9 0 -22 -8q-91 -57 -111 -60l244 709v-1894zM1155 -444l1083 1968h-32q-293 -523 -693 -1162q-86 -100 -170 -100q-92 0 -112 131 q-25 163 -25 264q0 152 54 152h8q6 0 127 -68l-240 709v-1894z" />
<glyph unicode="&#xc4;" horiz-adv-x="1495" d="M-111 0v61q113 5 196 106q45 55 116 202l530 1095l699 -1239q31 -54 81 -101q59 -55 111 -63v-61h-508v61h12q47 0 78 28.5t31 74.5q0 57 -47 139l-146 256h-677l-93 -190q-57 -116 -57 -181q0 -116 158 -127v-61h-484zM397 621h611l-330 585zM474 1730q0 40 29 69.5 t69 29.5t70 -29.5t30 -69.5q0 -42 -29 -71t-71 -29q-43 0 -70.5 28.5t-27.5 71.5zM824 1730q0 40 30 69.5t70 29.5t69 -29.5t29 -69.5q0 -43 -27.5 -71.5t-70.5 -28.5q-42 0 -71 29t-29 71z" />
<glyph unicode="&#xc5;" horiz-adv-x="1495" d="M-111 0v61q113 5 196 106q45 55 116 202l530 1095l699 -1239q31 -54 81 -101q59 -55 111 -63v-61h-508v61h12q47 0 78 28.5t31 74.5q0 57 -47 139l-146 256h-677l-93 -190q-57 -116 -57 -181q0 -116 158 -127v-61h-484zM397 621h611l-330 585zM506 1817q0 101 69 170 t170 69t171.5 -69t70.5 -170t-70.5 -171.5t-171.5 -70.5t-170 70.5t-69 171.5zM596 1817q0 -63 43 -106.5t106 -43.5t106.5 43.5t43.5 106.5q0 62 -44 105.5t-106 43.5q-61 0 -105 -44t-44 -105z" />
<glyph unicode="&#xc6;" horiz-adv-x="2351" d="M-193 0v61h5q80 0 170 80q47 42 129 144l688 854q78 97 78 147q0 87 -144 98v62h1512v-322h-62q-49 139 -136.5 199.5t-236.5 60.5h-559v-567h262q302 0 306 176h61v-413h-61q-4 176 -306 176h-262v-695h559q150 0 237 65t136 208h62v-334h-1309v61h8q85 0 111 84 q14 44 14 156v258h-661l-203 -252q-78 -97 -78 -147q0 -86 145 -99v-61h-465zM459 621h610v763z" />
<glyph unicode="&#xc7;" horiz-adv-x="1567" d="M68 727q0 328 198 532.5t525 204.5q61 0 162 -19q112 -21 159 -24l17 -1q17 -1 34 -1q113 0 228 68v-391l-54 -4q-72 149 -207.5 230t-304.5 81q-265 0 -415 -193q-136 -176 -136 -450q0 -304 141 -496q158 -215 451 -215q204 0 355 119q163 128 163 326 q0 48 -31.5 107.5t-31.5 72.5q0 43 53 43q64 0 99 -75q28 -59 28 -130q0 -253 -228 -401q-198 -129 -464 -129q-327 0 -534 208.5t-207 536.5zM571 -371l35 78q125 -72 223 -72q121 0 121 93q0 90 -106 90q-14 0 -68 -6v188h64v-112q46 6 69 6q77 1 125.5 -43.5t48.5 -120.5 q0 -90 -67 -136q-58 -40 -152 -40q-102 0 -293 75z" />
<glyph unicode="&#xc8;" horiz-adv-x="1507" d="M92 0v61h8q85 0 111 84q14 44 14 156v844q0 111 -13 154q-25 85 -108 85h-12v62h1309v-322h-64q-49 139 -135.5 199.5t-234.5 60.5h-559v-567h262q301 0 305 176h61v-413h-61q-4 176 -305 176h-262v-695h559q149 0 237 66q84 63 133 207h64v-334h-1309zM510 1863 q0 70 74 70q39 0 96 -59l289 -299h-67l-330 204q-62 38 -62 84z" />
<glyph unicode="&#xc9;" horiz-adv-x="1507" d="M92 0v61h8q85 0 111 84q14 44 14 156v844q0 111 -13 154q-25 85 -108 85h-12v62h1309v-322h-64q-49 139 -135.5 199.5t-234.5 60.5h-559v-567h262q301 0 305 176h61v-413h-61q-4 176 -305 176h-262v-695h559q149 0 237 66q84 63 133 207h64v-334h-1309zM617 1575l289 299 q57 59 96 59q74 0 74 -70q0 -46 -62 -84l-330 -204h-67z" />
<glyph unicode="&#xca;" horiz-adv-x="1507" d="M92 0v61h8q85 0 111 84q14 44 14 156v844q0 111 -13 154q-25 85 -108 85h-12v62h1309v-322h-64q-49 139 -135.5 199.5t-234.5 60.5h-559v-567h262q301 0 305 176h61v-413h-61q-4 176 -305 176h-262v-695h559q149 0 237 66q84 63 133 207h64v-334h-1309zM502 1575l232 350 h118l232 -350h-58l-233 211l-233 -211h-58z" />
<glyph unicode="&#xcb;" horiz-adv-x="1507" d="M92 0v61h8q85 0 111 84q14 44 14 156v844q0 111 -13 154q-25 85 -108 85h-12v62h1309v-322h-64q-49 139 -135.5 199.5t-234.5 60.5h-559v-567h262q301 0 305 176h61v-413h-61q-4 176 -305 176h-262v-695h559q149 0 237 66q84 63 133 207h64v-334h-1309zM519 1730 q0 40 29 69.5t69 29.5t70 -29.5t30 -69.5q0 -42 -29 -71t-71 -29q-43 0 -70.5 28.5t-27.5 71.5zM869 1730q0 40 30 69.5t70 29.5t69 -29.5t29 -69.5q0 -43 -27.5 -71.5t-70.5 -28.5q-42 0 -71 29t-29 71z" />
<glyph unicode="&#xcc;" horiz-adv-x="631" d="M32 1863q0 70 74 70q39 0 96 -59l289 -299h-67l-330 204q-62 38 -62 84zM94 0v61h8q85 0 111 84q14 44 14 156v844q0 111 -14 155q-26 84 -111 84h-8v62h443v-62h-9q-84 0 -111 -84q-14 -45 -14 -155v-844q0 -111 14 -155q27 -85 111 -85h9v-61h-443z" />
<glyph unicode="&#xcd;" horiz-adv-x="631" d="M94 0v61h8q85 0 111 84q14 44 14 156v844q0 111 -14 155q-26 84 -111 84h-8v62h443v-62h-9q-84 0 -111 -84q-14 -45 -14 -155v-844q0 -111 14 -155q27 -85 111 -85h9v-61h-443zM139 1575l289 299q57 59 96 59q74 0 74 -70q0 -46 -62 -84l-330 -204h-67z" />
<glyph unicode="&#xce;" horiz-adv-x="631" d="M24 1575l232 350h118l232 -350h-58l-233 211l-233 -211h-58zM94 0v61h8q85 0 111 84q14 44 14 156v844q0 111 -14 155q-26 84 -111 84h-8v62h443v-62h-9q-84 0 -111 -84q-14 -45 -14 -155v-844q0 -111 14 -155q27 -85 111 -85h9v-61h-443z" />
<glyph unicode="&#xcf;" horiz-adv-x="631" d="M41 1730q0 40 29 69.5t69 29.5t70 -29.5t30 -69.5q0 -42 -29 -71t-71 -29q-43 0 -70.5 28.5t-27.5 71.5zM94 0v61h8q85 0 111 84q14 44 14 156v844q0 111 -14 155q-26 84 -111 84h-8v62h443v-62h-9q-84 0 -111 -84q-14 -45 -14 -155v-844q0 -111 14 -155q27 -85 111 -85 h9v-61h-443zM391 1730q0 40 30 69.5t70 29.5t69 -29.5t29 -69.5q0 -43 -27.5 -71.5t-70.5 -28.5q-42 0 -71 29t-29 71z" />
<glyph unicode="&#xd0;" horiz-adv-x="1540" d="M70 717q0 321 199 532q203 215 522 215q70 0 205.5 -30.5t203.5 -30.5q76 0 162 35v-340h-62q-78 140 -201 223q-131 88 -284 88q-257 0 -405 -218q-129 -190 -129 -460q0 -188 85 -358q92 -183 249 -267q112 -61 243 -61q110 0 201 45q100 50 149 141q25 47 25 168v150 q0 81 -14 116q-24 56 -91 56h-14v61h402v-61h-13q-63 0 -84 -59q-12 -34 -12 -113v-100q0 -94 66 -152q-277 -315 -666 -315q-327 0 -532 204.5t-205 530.5zM477 1886h51q36 -141 242 -141q208 0 240 141h51q-41 -272 -291 -272q-248 0 -293 272z" />
<glyph unicode="&#xd1;" horiz-adv-x="1651" d="M63 0l1 61q210 4 210 306v907l-51 59q-44 51 -125 51h-18l-2 62h278l1002 -1145v782q0 301 -195 301h-16v62h483v-62h-16q-195 0 -195 -301v-1114l-1083 1237v-839q0 -302 211 -306v-61h-484zM538 1622q38 213 197 213q21 0 64 -11l110 -28q31 -8 55 -8q68 0 94 84h54 q-39 -205 -195 -205q-35 0 -73 10l-110 29q-23 6 -48 6q-67 0 -97 -90h-51z" />
<glyph unicode="&#xd2;" horiz-adv-x="1702" d="M70 707q0 337 224 549q219 208 558 208q335 0 553 -193q227 -201 227 -532q0 -337 -222 -549q-219 -208 -558 -208q-335 0 -554 193q-228 201 -228 532zM279 717q0 -274 146 -465q161 -209 427 -209q265 0 426 216q145 196 145 470q0 275 -145 465q-159 209 -426 209 q-265 0 -426 -216q-147 -196 -147 -470zM639 1863q0 70 74 70q39 0 96 -59l289 -299h-67l-330 204q-62 38 -62 84z" />
<glyph unicode="&#xd3;" horiz-adv-x="1702" d="M70 707q0 337 224 549q219 208 558 208q335 0 553 -193q227 -201 227 -532q0 -337 -222 -549q-219 -208 -558 -208q-335 0 -554 193q-228 201 -228 532zM279 717q0 -274 146 -465q161 -209 427 -209q265 0 426 216q145 196 145 470q0 275 -145 465q-159 209 -426 209 q-265 0 -426 -216q-147 -196 -147 -470zM746 1575l289 299q57 59 96 59q74 0 74 -70q0 -46 -62 -84l-330 -204h-67z" />
<glyph unicode="&#xd4;" horiz-adv-x="1702" d="M70 707q0 337 224 549q219 208 558 208q335 0 553 -193q227 -201 227 -532q0 -337 -222 -549q-219 -208 -558 -208q-335 0 -554 193q-228 201 -228 532zM279 717q0 -274 146 -465q161 -209 427 -209q265 0 426 216q145 196 145 470q0 275 -145 465q-159 209 -426 209 q-265 0 -426 -216q-147 -196 -147 -470zM631 1575l232 350h118l232 -350h-58l-233 211l-233 -211h-58z" />
<glyph unicode="&#xd5;" horiz-adv-x="1702" d="M70 707q0 337 224 549q219 208 558 208q335 0 553 -193q227 -201 227 -532q0 -337 -222 -549q-219 -208 -558 -208q-335 0 -554 193q-228 201 -228 532zM279 717q0 -274 146 -465q161 -209 427 -209q265 0 426 216q145 196 145 470q0 275 -145 465q-159 209 -426 209 q-265 0 -426 -216q-147 -196 -147 -470zM635 1622q38 213 197 213q21 0 64 -11l110 -28q31 -8 55 -8q68 0 94 84h54q-39 -205 -195 -205q-35 0 -73 10l-110 29q-23 6 -48 6q-67 0 -97 -90h-51z" />
<glyph unicode="&#xd6;" horiz-adv-x="1702" d="M70 707q0 337 224 549q219 208 558 208q335 0 553 -193q227 -201 227 -532q0 -337 -222 -549q-219 -208 -558 -208q-335 0 -554 193q-228 201 -228 532zM279 717q0 -274 146 -465q161 -209 427 -209q265 0 426 216q145 196 145 470q0 275 -145 465q-159 209 -426 209 q-265 0 -426 -216q-147 -196 -147 -470zM648 1730q0 40 29 69.5t69 29.5t70 -29.5t30 -69.5q0 -42 -29 -71t-71 -29q-43 0 -70.5 28.5t-27.5 71.5zM998 1730q0 40 30 69.5t70 29.5t69 -29.5t29 -69.5q0 -43 -27.5 -71.5t-70.5 -28.5q-42 0 -71 29t-29 71z" />
<glyph unicode="&#xd7;" horiz-adv-x="1706" d="M301 135l475 475l-475 477l80 82l477 -477l475 477l82 -82l-475 -477l475 -475l-82 -82l-475 475l-477 -475z" />
<glyph unicode="&#xd8;" horiz-adv-x="1702" d="M70 707q0 337 224 549q220 208 558 208q257 0 455 -123l137 166h84l-166 -204q270 -211 270 -566q0 -337 -222 -548q-219 -207 -558 -207q-253 0 -459 122l-133 -167h-86l164 206q-268 216 -268 564zM279 717q0 -262 149 -467l803 995q-156 158 -379 158 q-265 0 -426 -216q-147 -196 -147 -470zM471 199q152 -156 381 -156q265 0 426 216q145 196 145 470q0 256 -149 463z" />
<glyph unicode="&#xd9;" horiz-adv-x="1518" d="M63 1384v62h443v-62h-8q-85 0 -111 -84q-14 -44 -14 -155v-645q0 -205 111 -328q115 -129 317 -129q224 0 356 145q127 140 127 367v528q0 301 -192 301h-17v62h481v-62h-16q-194 0 -194 -301v-526q0 -261 -149 -418t-409 -157q-267 0 -429 164.5t-162 431.5v567 q0 110 -14 155q-27 84 -111 84h-9zM477 1863q0 70 74 70q39 0 96 -59l289 -299h-67l-330 204q-62 38 -62 84z" />
<glyph unicode="&#xda;" horiz-adv-x="1518" d="M63 1384v62h443v-62h-8q-85 0 -111 -84q-14 -44 -14 -155v-645q0 -205 111 -328q115 -129 317 -129q224 0 356 145q127 140 127 367v528q0 301 -192 301h-17v62h481v-62h-16q-194 0 -194 -301v-526q0 -261 -149 -418t-409 -157q-267 0 -429 164.5t-162 431.5v567 q0 110 -14 155q-27 84 -111 84h-9zM584 1575l289 299q57 59 96 59q74 0 74 -70q0 -46 -62 -84l-330 -204h-67z" />
<glyph unicode="&#xdb;" horiz-adv-x="1518" d="M63 1384v62h443v-62h-8q-85 0 -111 -84q-14 -44 -14 -155v-645q0 -205 111 -328q115 -129 317 -129q224 0 356 145q127 140 127 367v528q0 301 -192 301h-17v62h481v-62h-16q-194 0 -194 -301v-526q0 -261 -149 -418t-409 -157q-267 0 -429 164.5t-162 431.5v567 q0 110 -14 155q-27 84 -111 84h-9zM469 1575l232 350h118l232 -350h-58l-233 211l-233 -211h-58z" />
<glyph unicode="&#xdc;" horiz-adv-x="1518" d="M63 1384v62h443v-62h-8q-85 0 -111 -84q-14 -44 -14 -155v-645q0 -205 111 -328q115 -129 317 -129q224 0 356 145q127 140 127 367v528q0 301 -192 301h-17v62h481v-62h-16q-194 0 -194 -301v-526q0 -261 -149 -418t-409 -157q-267 0 -429 164.5t-162 431.5v567 q0 110 -14 155q-27 84 -111 84h-9zM486 1730q0 40 29 69.5t69 29.5t70 -29.5t30 -69.5q0 -42 -29 -71t-71 -29q-43 0 -70.5 28.5t-27.5 71.5zM836 1730q0 40 30 69.5t70 29.5t69 -29.5t29 -69.5q0 -43 -27.5 -71.5t-70.5 -28.5q-42 0 -71 29t-29 71z" />
<glyph unicode="&#xdd;" horiz-adv-x="631" d="M94 0v61h8q85 0 111 84q14 44 14 156v844q0 111 -14 155q-26 84 -111 84h-8v62h443v-62h-9q-84 0 -111 -84q-14 -45 -14 -155v-844q0 -111 14 -155q27 -85 111 -85h9v-61h-443zM215 1730q0 41 29.5 71t70.5 30q40 0 70 -30.5t30 -70.5q0 -41 -29.5 -70.5t-70.5 -29.5 t-70.5 29.5t-29.5 70.5z" />
<glyph unicode="&#xde;" horiz-adv-x="1470" d="M82 1077q0 189 157 295q136 92 334 92q85 0 248 -34.5t244 -34.5q91 0 215 57v-346h-63q-75 144 -253 225q-158 72 -337 72q-151 0 -246 -54q-119 -67 -119 -206q0 -113 96 -172q101 -62 337 -80q50 -4 73 -6q608 -56 608 -436q0 -222 -183 -352q-163 -115 -394 -115 q-92 0 -261.5 42t-246.5 42q-107 0 -195 -50v363h64q62 -157 246 -250q164 -84 348 -84q175 0 296 76q144 89 144 254q0 171 -173 245q-96 41 -321 66q-277 30 -401 85q-217 94 -217 306zM497 -371l35 78q125 -72 223 -72q121 0 121 93q0 90 -106 90q-14 0 -68 -6v188h64 v-112q46 6 69 6q77 1 125.5 -43.5t48.5 -120.5q0 -90 -67 -136q-58 -40 -152 -40q-102 0 -293 75z" />
<glyph unicode="&#xdf;" horiz-adv-x="2482" d="M117 752q0 140 137 213q109 59 262 59q68 0 195 -24.5t182 -24.5q79 0 170 39v-244h-57q-62 98 -201 151q-118 44 -252 44q-103 0 -181 -36q-102 -47 -102 -138q0 -121 307 -159q29 -3 76 -9q204 -26 311 -76q175 -81 175 -238q0 -166 -160 -255q-130 -72 -309 -72 q-73 0 -206 30.5t-185 30.5q-76 0 -150 -37v254h57q55 -112 208 -171q126 -48 272 -48q121 0 212 51q111 62 111 174q0 111 -143 160q-64 22 -234 43q-222 27 -312 61q-183 69 -183 222zM1358 752q0 140 137 213q109 59 262 59q68 0 195 -24.5t182 -24.5q79 0 170 39v-244 h-57q-62 98 -201 151q-118 44 -252 44q-103 0 -181 -36q-102 -47 -102 -138q0 -121 307 -159q29 -3 76 -9q204 -26 311 -76q175 -81 175 -238q0 -166 -160 -255q-130 -72 -309 -72q-73 0 -206 30.5t-185 30.5q-76 0 -150 -37v254h57q55 -112 208 -171q126 -48 272 -48 q121 0 212 51q111 62 111 174q0 111 -143 160q-64 22 -234 43q-222 27 -312 61q-183 69 -183 222z" />
<glyph unicode="&#xe0;" horiz-adv-x="1133" d="M-121 0v57q88 4 151 69q38 40 95 144l412 754l540 -852q63 -99 152 -115v-57h-430v57h10q84 0 84 74q0 36 -37 94l-100 158h-508l-60 -113q-45 -85 -45 -127q0 -79 125 -86v-57h-389zM281 440h438l-238 369zM284 1423q0 70 74 70q39 0 96 -59l289 -299h-67l-330 204 q-62 38 -62 84z" />
<glyph unicode="&#xe1;" horiz-adv-x="1133" d="M-121 0v57q88 4 151 69q38 40 95 144l412 754l540 -852q63 -99 152 -115v-57h-430v57h10q84 0 84 74q0 36 -37 94l-100 158h-508l-60 -113q-45 -85 -45 -127q0 -79 125 -86v-57h-389zM281 440h438l-238 369zM391 1135l289 299q57 59 96 59q74 0 74 -70q0 -46 -62 -84 l-330 -204h-67z" />
<glyph unicode="&#xe2;" horiz-adv-x="1133" d="M-121 0v57q88 4 151 69q38 40 95 144l412 754l540 -852q63 -99 152 -115v-57h-430v57h10q84 0 84 74q0 36 -37 94l-100 158h-508l-60 -113q-45 -85 -45 -127q0 -79 125 -86v-57h-389zM276 1135l232 350h118l232 -350h-58l-233 211l-233 -211h-58zM281 440h438l-238 369z " />
<glyph unicode="&#xe3;" horiz-adv-x="1133" d="M-121 0v57q88 4 151 69q38 40 95 144l412 754l540 -852q63 -99 152 -115v-57h-430v57h10q84 0 84 74q0 36 -37 94l-100 158h-508l-60 -113q-45 -85 -45 -127q0 -79 125 -86v-57h-389zM280 1182q38 213 197 213q21 0 64 -11l110 -28q31 -8 55 -8q68 0 94 84h54 q-39 -205 -195 -205q-35 0 -73 10l-110 29q-23 6 -48 6q-67 0 -97 -90h-51zM281 440h438l-238 369z" />
<glyph unicode="&#xe4;" horiz-adv-x="1133" d="M-121 0v57q88 4 151 69q38 40 95 144l412 754l540 -852q63 -99 152 -115v-57h-430v57h10q84 0 84 74q0 36 -37 94l-100 158h-508l-60 -113q-45 -85 -45 -127q0 -79 125 -86v-57h-389zM281 440h438l-238 369zM293 1290q0 40 29 69.5t69 29.5t70 -29.5t30 -69.5 q0 -42 -29 -71t-71 -29q-43 0 -70.5 28.5t-27.5 71.5zM643 1290q0 40 30 69.5t70 29.5t69 -29.5t29 -69.5q0 -43 -27.5 -71.5t-70.5 -28.5q-42 0 -71 29t-29 71z" />
<glyph unicode="&#xe5;" horiz-adv-x="1133" d="M-121 0v57q88 4 151 69q38 40 95 144l412 754l540 -852q63 -99 152 -115v-57h-430v57h10q84 0 84 74q0 36 -37 94l-100 158h-508l-60 -113q-45 -85 -45 -127q0 -79 125 -86v-57h-389zM281 440h438l-238 369zM327 1356q0 101 69.5 171t170.5 70t171.5 -70t70.5 -171 t-70.5 -170.5t-171.5 -69.5q-102 0 -171 69t-69 171zM417 1358q0 -63 43.5 -107.5t106.5 -44.5t106.5 44.5t43.5 107.5q0 61 -44.5 105t-105.5 44t-105.5 -44t-44.5 -105z" />
<glyph unicode="&#xe6;" horiz-adv-x="1767" d="M-137 0v57h10q104 0 287 213l438 510q72 84 72 119q0 49 -64 49h-12v58h1067v-238h-57q-41 99 -114 141q-66 37 -179 37h-338v-373h102q236 0 242 123h57v-301l-57 1q-4 122 -242 122h-102v-461h338q115 0 181 41q70 44 112 148h57v-246h-956v57h4q66 0 87 54 q13 32 13 112v160h-483l-72 -86q-86 -103 -86 -152q0 -70 135 -88v-57h-440zM375 440h434v506z" />
<glyph unicode="&#xe7;" horiz-adv-x="1229" d="M55 506q0 240 167 383q158 135 403 135q44 0 129.5 -14.5t126.5 -14.5q30 -2 41 -2q82 0 178 47v-278h-41q-113 205 -387 205q-198 0 -311 -122q-109 -119 -109 -319q0 -212 109 -344q117 -141 325 -141q148 0 269 74q139 87 139 227q0 34 -25 76t-25 49q0 31 43 31 q50 0 77 -50q22 -40 22 -94q0 -185 -191 -288q-155 -84 -356 -84q-245 0 -409 137q-175 146 -175 387zM413 -371l35 78q125 -72 223 -72q121 0 121 93q0 90 -106 90q-14 0 -68 -6v188h64v-112q46 6 69 6q77 1 125.5 -43.5t48.5 -120.5q0 -90 -67 -136q-58 -40 -152 -40 q-102 0 -293 75z" />
<glyph unicode="&#xe8;" horiz-adv-x="1176" d="M72 0v57h4q66 0 87 54q13 32 13 112v559q0 79 -11 110q-20 56 -83 56h-10v58h956v-238h-57q-75 180 -295 180h-336v-375h102q236 0 242 123h57v-301l-57 1q-4 122 -242 122h-102v-461h336q115 0 182 41q72 44 113 148h57v-246h-956zM305 1423q0 70 74 70q39 0 96 -59 l289 -299h-67l-330 204q-62 38 -62 84z" />
<glyph unicode="&#xe9;" horiz-adv-x="1176" d="M72 0v57h4q66 0 87 54q13 32 13 112v559q0 79 -11 110q-20 56 -83 56h-10v58h956v-238h-57q-75 180 -295 180h-336v-375h102q236 0 242 123h57v-301l-57 1q-4 122 -242 122h-102v-461h336q115 0 182 41q72 44 113 148h57v-246h-956zM412 1135l289 299q57 59 96 59 q74 0 74 -70q0 -46 -62 -84l-330 -204h-67z" />
<glyph unicode="&#xea;" horiz-adv-x="1176" d="M72 0v57h4q66 0 87 54q13 32 13 112v559q0 79 -11 110q-20 56 -83 56h-10v58h956v-238h-57q-75 180 -295 180h-336v-375h102q236 0 242 123h57v-301l-57 1q-4 122 -242 122h-102v-461h336q115 0 182 41q72 44 113 148h57v-246h-956zM297 1135l232 350h118l232 -350h-58 l-233 211l-233 -211h-58z" />
<glyph unicode="&#xeb;" horiz-adv-x="1176" d="M72 0v57h4q66 0 87 54q13 32 13 112v559q0 79 -11 110q-20 56 -83 56h-10v58h956v-238h-57q-75 180 -295 180h-336v-375h102q236 0 242 123h57v-301l-57 1q-4 122 -242 122h-102v-461h336q115 0 182 41q72 44 113 148h57v-246h-956zM314 1290q0 40 29 69.5t69 29.5 t70 -29.5t30 -69.5q0 -42 -29 -71t-71 -29q-43 0 -70.5 28.5t-27.5 71.5zM664 1290q0 40 30 69.5t70 29.5t69 -29.5t29 -69.5q0 -43 -27.5 -71.5t-70.5 -28.5q-42 0 -71 29t-29 71z" />
<glyph unicode="&#xec;" horiz-adv-x="545" d="M-39 1423q0 70 74 70q39 0 96 -59l289 -299h-67l-330 204q-62 38 -62 84zM57 0v57h6q79 0 107 45q20 34 20 121v557q0 87 -20 122q-28 46 -107 46h-6v58h430v-58h-6q-79 0 -106 -47q-21 -34 -21 -121v-557q0 -86 21 -121q27 -45 106 -45h6v-57h-430zM182 1300 q0 41 29.5 71t70.5 30q40 0 70 -30.5t30 -70.5q0 -41 -29.5 -70.5t-70.5 -29.5t-70.5 29.5t-29.5 70.5z" />
<glyph unicode="&#xed;" horiz-adv-x="545" d="M57 0v57h6q79 0 107 45q20 34 20 121v557q0 87 -20 122q-28 46 -107 46h-6v58h430v-58h-6q-79 0 -106 -47q-21 -34 -21 -121v-557q0 -86 21 -121q27 -45 106 -45h6v-57h-430zM68 1135l289 299q57 59 96 59q74 0 74 -70q0 -46 -62 -84l-330 -204h-67zM182 1300 q0 41 29.5 71t70.5 30q40 0 70 -30.5t30 -70.5q0 -41 -29.5 -70.5t-70.5 -29.5t-70.5 29.5t-29.5 70.5z" />
<glyph unicode="&#xee;" horiz-adv-x="545" d="M-47 1135l232 350h118l232 -350h-58l-233 211l-233 -211h-58zM57 0v57h6q79 0 107 45q20 34 20 121v557q0 87 -20 122q-28 46 -107 46h-6v58h430v-58h-6q-79 0 -106 -47q-21 -34 -21 -121v-557q0 -86 21 -121q27 -45 106 -45h6v-57h-430zM182 1300q0 41 29.5 71t70.5 30 q40 0 70 -30.5t30 -70.5q0 -41 -29.5 -70.5t-70.5 -29.5t-70.5 29.5t-29.5 70.5z" />
<glyph unicode="&#xef;" horiz-adv-x="545" d="M-30 1290q0 40 29 69.5t69 29.5t70 -29.5t30 -69.5q0 -42 -29 -71t-71 -29q-43 0 -70.5 28.5t-27.5 71.5zM57 0v57h6q79 0 107 45q20 34 20 121v557q0 87 -20 122q-28 46 -107 46h-6v58h430v-58h-6q-79 0 -106 -47q-21 -34 -21 -121v-557q0 -86 21 -121q27 -45 106 -45h6 v-57h-430zM182 1300q0 41 29.5 71t70.5 30q40 0 70 -30.5t30 -70.5q0 -41 -29.5 -70.5t-70.5 -29.5t-70.5 29.5t-29.5 70.5zM320 1290q0 40 30 69.5t70 29.5t69 -29.5t29 -69.5q0 -43 -27.5 -71.5t-70.5 -28.5q-42 0 -71 29t-29 71z" />
<glyph unicode="&#xf0;" horiz-adv-x="1219" d="M45 498q0 235 169 384q161 142 400 142q56 0 164.5 -22.5t163.5 -22.5q50 0 125 25v-238h-57q-139 203 -369 203q-188 0 -297 -140q-100 -128 -100 -321q0 -196 121 -329q125 -136 319 -136q254 0 254 231v105q0 61 -13 86q-19 35 -73 35h-6v57h340v-57h-10 q-74 0 -74 -121v-70q0 -65 51 -106q-215 -221 -526 -221q-245 0 -408 133q-174 143 -174 383zM317 1446h51q36 -141 242 -141q208 0 240 141h51q-41 -272 -291 -272q-248 0 -293 272z" />
<glyph unicode="&#xf1;" horiz-adv-x="1280" d="M23 0v57h4q161 0 161 213v600l-41 39q-41 39 -100 39h-12v58h237l764 -768v501q0 209 -153 209h-15v58h389v-58h-14q-151 0 -151 -209v-784l-846 856v-541q0 -213 166 -213v-57h-389zM354 1182q38 213 197 213q21 0 64 -11l110 -28q31 -8 55 -8q68 0 94 84h54 q-39 -205 -195 -205q-35 0 -73 10l-110 29q-23 6 -48 6q-67 0 -97 -90h-51z" />
<glyph unicode="&#xf2;" horiz-adv-x="1341" d="M61 492q0 247 185 395q171 137 424 137q250 0 421 -127q189 -141 189 -383q0 -248 -185 -396q-171 -136 -425 -136q-251 0 -421 127q-188 141 -188 383zM258 500q0 -192 109 -323q116 -138 305 -138q186 0 302 143q109 134 109 324q0 191 -108 322q-116 141 -303 141 q-186 0 -304 -144q-110 -135 -110 -325zM389 1423q0 70 74 70q39 0 96 -59l289 -299h-67l-330 204q-62 38 -62 84z" />
<glyph unicode="&#xf3;" horiz-adv-x="1341" d="M61 492q0 247 185 395q171 137 424 137q250 0 421 -127q189 -141 189 -383q0 -248 -185 -396q-171 -136 -425 -136q-251 0 -421 127q-188 141 -188 383zM258 500q0 -192 109 -323q116 -138 305 -138q186 0 302 143q109 134 109 324q0 191 -108 322q-116 141 -303 141 q-186 0 -304 -144q-110 -135 -110 -325zM496 1135l289 299q57 59 96 59q74 0 74 -70q0 -46 -62 -84l-330 -204h-67z" />
<glyph unicode="&#xf4;" horiz-adv-x="1341" d="M61 492q0 247 185 395q171 137 424 137q250 0 421 -127q189 -141 189 -383q0 -248 -185 -396q-171 -136 -425 -136q-251 0 -421 127q-188 141 -188 383zM258 500q0 -192 109 -323q116 -138 305 -138q186 0 302 143q109 134 109 324q0 191 -108 322q-116 141 -303 141 q-186 0 -304 -144q-110 -135 -110 -325zM381 1135l232 350h118l232 -350h-58l-233 211l-233 -211h-58z" />
<glyph unicode="&#xf5;" horiz-adv-x="1341" d="M61 492q0 247 185 395q171 137 424 137q250 0 421 -127q189 -141 189 -383q0 -248 -185 -396q-171 -136 -425 -136q-251 0 -421 127q-188 141 -188 383zM258 500q0 -192 109 -323q116 -138 305 -138q186 0 302 143q109 134 109 324q0 191 -108 322q-116 141 -303 141 q-186 0 -304 -144q-110 -135 -110 -325zM385 1182q38 213 197 213q21 0 64 -11l110 -28q31 -8 55 -8q68 0 94 84h54q-39 -205 -195 -205q-35 0 -73 10l-110 29q-23 6 -48 6q-67 0 -97 -90h-51z" />
<glyph unicode="&#xf6;" horiz-adv-x="1341" d="M61 492q0 247 185 395q171 137 424 137q250 0 421 -127q189 -141 189 -383q0 -248 -185 -396q-171 -136 -425 -136q-251 0 -421 127q-188 141 -188 383zM258 500q0 -192 109 -323q116 -138 305 -138q186 0 302 143q109 134 109 324q0 191 -108 322q-116 141 -303 141 q-186 0 -304 -144q-110 -135 -110 -325zM398 1290q0 40 29 69.5t69 29.5t70 -29.5t30 -69.5q0 -42 -29 -71t-71 -29q-43 0 -70.5 28.5t-27.5 71.5zM748 1290q0 40 30 69.5t70 29.5t69 -29.5t29 -69.5q0 -43 -27.5 -71.5t-70.5 -28.5q-42 0 -71 29t-29 71z" />
<glyph unicode="&#xf7;" horiz-adv-x="1706" d="M254 553v117h1198v-117h-1198zM739 250q0 48 33.5 81.5t81.5 33.5q47 0 81 -34t34 -81q0 -48 -33.5 -81.5t-81.5 -33.5t-81.5 33.5t-33.5 81.5zM739 971q0 47 34 80.5t81 33.5q48 0 81.5 -33t33.5 -81t-33.5 -81.5t-81.5 -33.5q-49 0 -82 33t-33 82z" />
<glyph unicode="&#xf8;" horiz-adv-x="1341" d="M61 492q0 247 185 395q171 137 424 137q192 0 340 -78l102 119h90l-133 -156q211 -137 211 -395q0 -248 -185 -396q-171 -136 -425 -136q-186 0 -344 79l-107 -120h-86l135 157q-207 150 -207 394zM246 500q0 -172 104 -312l596 682q-123 99 -274 99q-189 0 -310 -142 q-116 -135 -116 -327zM393 141q120 -102 279 -102q190 0 310 141q114 133 114 326q0 172 -105 315z" />
<glyph unicode="&#xf9;" horiz-adv-x="1270" d="M78 948v58h373v-58h-5q-66 0 -87 -54q-13 -32 -13 -112v-438q0 -144 91 -226q87 -79 233 -79q159 0 260.5 92.5t101.5 249.5v358q0 209 -151 209h-15v58h389v-58h-10q-155 0 -155 -209v-356q0 -191 -127 -299q-119 -102 -314 -102q-201 0 -329 105q-138 113 -138 310v385 q0 80 -13 112q-21 54 -87 54h-4zM352 1423q0 70 74 70q39 0 96 -59l289 -299h-67l-330 204q-62 38 -62 84z" />
<glyph unicode="&#xfa;" horiz-adv-x="1270" d="M78 948v58h373v-58h-5q-66 0 -87 -54q-13 -32 -13 -112v-438q0 -144 91 -226q87 -79 233 -79q159 0 260.5 92.5t101.5 249.5v358q0 209 -151 209h-15v58h389v-58h-10q-155 0 -155 -209v-356q0 -191 -127 -299q-119 -102 -314 -102q-201 0 -329 105q-138 113 -138 310v385 q0 80 -13 112q-21 54 -87 54h-4zM459 1135l289 299q57 59 96 59q74 0 74 -70q0 -46 -62 -84l-330 -204h-67z" />
<glyph unicode="&#xfb;" horiz-adv-x="1270" d="M78 948v58h373v-58h-5q-66 0 -87 -54q-13 -32 -13 -112v-438q0 -144 91 -226q87 -79 233 -79q159 0 260.5 92.5t101.5 249.5v358q0 209 -151 209h-15v58h389v-58h-10q-155 0 -155 -209v-356q0 -191 -127 -299q-119 -102 -314 -102q-201 0 -329 105q-138 113 -138 310v385 q0 80 -13 112q-21 54 -87 54h-4zM344 1135l232 350h118l232 -350h-58l-233 211l-233 -211h-58z" />
<glyph unicode="&#xfc;" horiz-adv-x="1270" d="M78 948v58h373v-58h-5q-66 0 -87 -54q-13 -32 -13 -112v-438q0 -144 91 -226q87 -79 233 -79q159 0 260.5 92.5t101.5 249.5v358q0 209 -151 209h-15v58h389v-58h-10q-155 0 -155 -209v-356q0 -191 -127 -299q-119 -102 -314 -102q-201 0 -329 105q-138 113 -138 310v385 q0 80 -13 112q-21 54 -87 54h-4zM361 1290q0 40 29 69.5t69 29.5t70 -29.5t30 -69.5q0 -42 -29 -71t-71 -29q-43 0 -70.5 28.5t-27.5 71.5zM711 1290q0 40 30 69.5t70 29.5t69 -29.5t29 -69.5q0 -43 -27.5 -71.5t-70.5 -28.5q-42 0 -71 29t-29 71z" />
<glyph unicode="&#xfd;" horiz-adv-x="545" d="M57 0v57h6q79 0 107 45q20 34 20 121v557q0 87 -20 122q-28 46 -107 46h-6v58h430v-58h-6q-79 0 -106 -47q-21 -34 -21 -121v-557q0 -86 21 -121q27 -45 106 -45h6v-57h-430z" />
<glyph unicode="&#xfe;" horiz-adv-x="1241" d="M117 752q0 140 137 213q109 59 262 59q68 0 195 -24.5t182 -24.5q79 0 170 39v-244h-57q-62 98 -201 151q-118 44 -252 44q-103 0 -181 -36q-102 -47 -102 -138q0 -121 307 -159q29 -3 76 -9q204 -26 311 -76q175 -81 175 -238q0 -166 -160 -255q-130 -72 -309 -72 q-73 0 -206 30.5t-185 30.5q-76 0 -150 -37v254h57q55 -112 208 -171q126 -48 272 -48q121 0 212 51q111 62 111 174q0 111 -143 160q-64 22 -234 43q-222 27 -312 61q-183 69 -183 222zM383 -371l35 78q125 -72 223 -72q121 0 121 93q0 90 -106 90q-14 0 -68 -6v188h64 v-112q46 6 69 6q77 1 125.5 -43.5t48.5 -120.5q0 -90 -67 -136q-58 -40 -152 -40q-102 0 -293 75z" />
<glyph unicode="&#xff;" horiz-adv-x="1104" d="M-111 1006h473v-58h-8q-69 0 -69 -45q0 -29 41 -76l284 -323l252 291q53 61 53 88q0 54 -127 65v58h437l-1 -58q-177 -20 -276 -135l-301 -348v-242q0 -80 13 -113q21 -53 88 -53h4v-57h-373v57h6q65 0 86 54q12 32 12 112v191l-370 422q-96 110 -223 112zM279 1290 q0 40 29 69.5t69 29.5t70 -29.5t30 -69.5q0 -42 -29 -71t-71 -29q-43 0 -70.5 28.5t-27.5 71.5zM629 1290q0 40 30 69.5t70 29.5t69 -29.5t29 -69.5q0 -43 -27.5 -71.5t-70.5 -28.5q-42 0 -71 29t-29 71z" />
<glyph unicode="&#x152;" horiz-adv-x="2611" d="M70 707q0 337 224 549q219 208 558 208q262 0 475 -137v119h1176v-322h-62q-49 139 -136.5 199.5t-236.5 60.5h-559v-567h263q301 0 305 176h61v-413h-61q-4 176 -305 176h-263v-695h559q150 0 237.5 65t135.5 208h62v-334h-1176v125q-221 -143 -475 -143 q-335 0 -554 193q-228 201 -228 532zM279 717q0 -275 146 -465q160 -209 427 -209q485 0 485 686q0 674 -485 674q-265 0 -426 -216q-147 -196 -147 -470z" />
<glyph unicode="&#x153;" horiz-adv-x="1913" d="M61 492q0 248 193 405q161 131 360 131q179 0 316 -127v105h876v-238h-57q-42 100 -114 141q-65 37 -179 37h-338v-373h105q233 0 239 123h58v-301l-58 1q-2 122 -239 122h-105v-461h338q115 0 183.5 42.5t109.5 146.5h57v-246h-876v117q-138 -140 -326 -140 q-220 0 -379 147q-164 150 -164 368zM258 500q0 -175 103 -313q112 -150 282 -150q169 0 253 159q65 124 65 310q0 183 -65 306q-82 157 -249 157q-171 0 -285 -153q-104 -139 -104 -316z" />
<glyph unicode="&#x178;" horiz-adv-x="1403" d="M-164 1385v61h551v-62h-8q-90 0 -90 -65q0 -40 53 -109l410 -534l362 487q60 81 60 127q0 88 -156 95v61h538v-62q-220 -24 -348 -194l-409 -543v-346q0 -112 14 -156q26 -84 111 -84h8v-61h-443v61h9q84 0 110 85q13 44 13 155v279l-500 643q-123 158 -285 162z M428 1730q0 40 29 69.5t69 29.5t70 -29.5t30 -69.5q0 -42 -29 -71t-71 -29q-43 0 -70.5 28.5t-27.5 71.5zM778 1730q0 40 30 69.5t70 29.5t69 -29.5t29 -69.5q0 -43 -27.5 -71.5t-70.5 -28.5q-42 0 -71 29t-29 71z" />
<glyph unicode="&#x2c6;" d="M221 1135l232 350h118l232 -350h-58l-233 211l-233 -211h-58z" />
<glyph unicode="&#x2dc;" d="M225 1182q38 213 197 213q21 0 64 -11l110 -28q31 -8 55 -8q68 0 94 84h54q-39 -205 -195 -205q-35 0 -73 10l-110 29q-23 6 -48 6q-67 0 -97 -90h-51z" />
<glyph unicode="&#x2000;" horiz-adv-x="1028" />
<glyph unicode="&#x2001;" horiz-adv-x="2056" />
<glyph unicode="&#x2002;" horiz-adv-x="1028" />
<glyph unicode="&#x2003;" horiz-adv-x="2056" />
<glyph unicode="&#x2004;" horiz-adv-x="685" />
<glyph unicode="&#x2005;" horiz-adv-x="514" />
<glyph unicode="&#x2006;" horiz-adv-x="342" />
<glyph unicode="&#x2007;" horiz-adv-x="342" />
<glyph unicode="&#x2008;" horiz-adv-x="257" />
<glyph unicode="&#x2009;" horiz-adv-x="411" />
<glyph unicode="&#x200a;" horiz-adv-x="114" />
<glyph unicode="&#x2010;" horiz-adv-x="616" d="M72 655v162h473v-162h-473z" />
<glyph unicode="&#x2011;" horiz-adv-x="616" d="M72 655v162h473v-162h-473z" />
<glyph unicode="&#x2012;" horiz-adv-x="616" d="M72 655v162h473v-162h-473z" />
<glyph unicode="&#x2013;" d="M0 666v141h1024v-141h-1024z" />
<glyph unicode="&#x2014;" horiz-adv-x="2048" d="M0 666v141h2048v-141h-2048z" />
<glyph unicode="&#x2018;" horiz-adv-x="721" d="M221 1225q0 95 72 165t168 74v-55q-78 -14 -115 -63q154 -8 154 -142q0 -63 -37.5 -102t-100.5 -39t-103 51q-38 47 -38 111z" />
<glyph unicode="&#x2019;" horiz-adv-x="721" d="M221 1323q0 62 37.5 101.5t99.5 39.5q63 0 104 -50q38 -47 38 -111q0 -95 -73 -165.5t-168 -74.5l-1 55q81 17 114 63q-151 8 -151 142z" />
<glyph unicode="&#x201a;" horiz-adv-x="721" d="M221 123q0 62 37.5 101.5t99.5 39.5q66 0 106 -55q36 -49 36 -117q0 -90 -75.5 -158.5t-166.5 -72.5v57q78 11 114 63q-151 8 -151 142z" />
<glyph unicode="&#x201c;" horiz-adv-x="1139" d="M221 1225q0 95 72 165t168 74v-55q-78 -14 -115 -63q154 -8 154 -142q0 -63 -37.5 -102t-100.5 -39t-103 51q-38 47 -38 111zM641 1225q0 71 48.5 135t116.5 90q36 13 76 14l1 -55q-78 -14 -115 -63q152 -8 152 -142q0 -63 -37.5 -102t-100.5 -39t-103 51q-38 47 -38 111 z" />
<glyph unicode="&#x201d;" horiz-adv-x="1139" d="M221 1323q0 62 37.5 101.5t99.5 39.5q63 0 104 -50q38 -47 38 -111q0 -95 -73 -165.5t-168 -74.5l-1 55q81 17 114 63q-151 8 -151 142zM641 1323q0 62 37.5 101.5t99.5 39.5q63 0 104 -50q38 -47 38 -111q0 -96 -72.5 -165.5t-169.5 -74.5v55q81 17 114 63 q-151 8 -151 142z" />
<glyph unicode="&#x201e;" horiz-adv-x="1139" d="M221 123q0 62 37.5 101.5t99.5 39.5q63 0 104 -52q38 -48 38 -112q0 -95 -73.5 -165t-168.5 -74v57q79 15 114 63q-151 8 -151 142zM641 123q0 62 37.5 101.5t99.5 39.5q63 0 104 -52q38 -48 38 -112q0 -95 -73.5 -165t-168.5 -74v57q79 15 114 63q-151 8 -151 142z" />
<glyph unicode="&#x2022;" horiz-adv-x="1208" d="M307 762q0 124 86.5 209.5t210.5 85.5q123 0 209 -86t86 -209t-87 -210t-210 -87q-124 0 -209.5 86.5t-85.5 210.5z" />
<glyph unicode="&#x2026;" horiz-adv-x="2048" d="M211 119q0 56 38 96.5t93 40.5q56 0 92.5 -40t36.5 -97q0 -56 -36.5 -96.5t-92.5 -40.5q-55 0 -93 41t-38 96zM893 119q0 56 38 96.5t93 40.5q56 0 92.5 -40t36.5 -97q0 -56 -36.5 -96.5t-92.5 -40.5q-55 0 -93 41t-38 96zM1577 119q0 56 38 96.5t93 40.5q56 0 92.5 -40 t36.5 -97q0 -56 -36.5 -96.5t-92.5 -40.5q-55 0 -93 41t-38 96z" />
<glyph unicode="&#x202f;" horiz-adv-x="411" />
<glyph unicode="&#x2039;" horiz-adv-x="559" d="M76 504q214 176 375 368l55 -30q-65 -143 -256 -338q190 -193 256 -338l-55 -29q-159 188 -375 367z" />
<glyph unicode="&#x203a;" horiz-adv-x="559" d="M53 166q66 145 256 338q-191 195 -256 338l56 30q157 -190 374 -368q-220 -181 -374 -367z" />
<glyph unicode="&#x205f;" horiz-adv-x="514" />
<glyph unicode="&#x2122;" horiz-adv-x="1683" d="M244 1260l12 178h440l11 -178h-25q-15 151 -137 151h-21v-426q0 -50 45 -53l31 -2v-27h-248v27l31 2q45 3 45 53v426h-20q-123 0 -138 -151h-26zM788 903v27l34 2q44 3 44 53v371q0 50 -47 53l-31 2v27h183l141 -400l148 400h174v-25l-30 -2q-46 -3 -46 -53v-373 q0 -50 46 -53l30 -2v-27h-236v27l31 2q45 3 45 53v395l-178 -479h-15l-174 479v-395q0 -50 47 -53l31 -2v-27h-197z" />
<glyph unicode="&#xe000;" horiz-adv-x="1004" d="M0 0v1005h1005v-1005h-1005z" />
</font>
</defs>
</svg>
